<mxfile host="app.diagrams.net" modified="2024-03-31T20:25:43.163Z" agent="Mozilla/5.0 (Macintosh; Intel Mac OS X 10_15_7) AppleWebKit/605.1.15 (KHTML, like Gecko) Version/17.0 Safari/605.1.15" etag="8g37wuz-MrEuEzI-Ljxx" version="24.2.1" type="device">
  <diagram name="Page-1" id="yQR4sgPD3WoNrSwFbG2I">
    <mxGraphModel dx="744" dy="515" grid="1" gridSize="10" guides="1" tooltips="1" connect="1" arrows="1" fold="1" page="1" pageScale="1" pageWidth="850" pageHeight="1100" math="0" shadow="0">
      <root>
        <mxCell id="0" />
        <mxCell id="1" parent="0" />
        <mxCell id="NouRcJh4EqfzDPDc44TD-2" value="&lt;b&gt;Google &lt;/b&gt;Cloud Platform" style="fillColor=#F6F6F6;strokeColor=none;shadow=0;gradientColor=none;fontSize=14;align=left;spacing=10;fontColor=#717171;9E9E9E;verticalAlign=top;spacingTop=-4;fontStyle=0;spacingLeft=40;html=1;whiteSpace=wrap;" vertex="1" parent="1">
          <mxGeometry x="170" y="450" width="510" height="320" as="geometry" />
        </mxCell>
        <mxCell id="NouRcJh4EqfzDPDc44TD-3" value="" style="shape=mxgraph.gcp2.google_cloud_platform;fillColor=#F6F6F6;strokeColor=none;shadow=0;gradientColor=none;" vertex="1" parent="NouRcJh4EqfzDPDc44TD-2">
          <mxGeometry width="23" height="20" relative="1" as="geometry">
            <mxPoint x="20" y="10" as="offset" />
          </mxGeometry>
        </mxCell>
        <mxCell id="NouRcJh4EqfzDPDc44TD-6" value="Firestore" style="sketch=0;html=1;verticalAlign=top;labelPosition=center;verticalLabelPosition=bottom;align=center;spacingTop=-6;fontSize=11;fontStyle=1;fontColor=#999999;shape=image;aspect=fixed;imageAspect=0;image=data:image/svg+xml,PHN2ZyB4bWxucz0iaHR0cDovL3d3dy53My5vcmcvMjAwMC9zdmciIHhtbG5zOnY9Imh0dHBzOi8vdmVjdGEuaW8vbmFubyIgd2lkdGg9IjMyMy45MDU2MTAzOTg2NzUxNSIgaGVpZ2h0PSIzNzYuNDIyMjk0OTYzNjg0MDciIHZpZXdCb3g9Ii0wLjA5NzAwMDAwMjg2MTAyMjk1IDAuMjg3OTk5OTg3NjAyMjMzOSA4NS42OTk5OTY5NDgyNDIxOSA5OS41OTUwMDEyMjA3MDMxMiI+JiN4YTs8c3R5bGUgdHlwZT0idGV4dC9jc3MiPiYjeGE7CS5zdDB7ZmlsbDojYWVjYmZhO30mI3hhOwkuc3Qxe2ZpbGw6IzY2OWRmNjt9JiN4YTsJLnN0MntmaWxsOiM0Mjg1ZjQ7fSYjeGE7PC9zdHlsZT4mI3hhOwk8cGF0aCBjbGFzcz0ic3QwIiBkPSJNLS4wOTcgNzUuODE1VjU1Ljg3NGw0Mi44NS0yMC4xODN2MTkuMDd6bTAtMzUuNDAzVjIwLjQ3MUw0Mi43NTMuMjg4djE5LjA3eiIvPiYjeGE7CTxwYXRoIGNsYXNzPSJzdDEiIGQ9Ik04NS42MDMgNzUuODE1VjU1Ljg3NGwtNDIuODUtMjAuMTgzdjE5LjA3em0wLTM1LjQwM1YyMC40NzFMNDIuNzUzLjI4OHYxOS4wN3oiLz4mI3hhOwk8cGF0aCBjbGFzcz0ic3QyIiBkPSJNNDIuNzUzIDgwLjMxNGwxNi4yMTctNy41MjUgMjEuMDg0IDkuNzE3LTM3LjMwMSAxNy4zNzd6Ii8+JiN4YTs8L3N2Zz4=;" vertex="1" parent="NouRcJh4EqfzDPDc44TD-2">
          <mxGeometry x="42" y="120" width="36" height="42" as="geometry" />
        </mxCell>
        <mxCell id="NouRcJh4EqfzDPDc44TD-7" value="Pub/Sub" style="sketch=0;html=1;verticalAlign=top;labelPosition=center;verticalLabelPosition=bottom;align=center;spacingTop=-6;fontSize=11;fontStyle=1;fontColor=#999999;shape=image;aspect=fixed;imageAspect=0;image=data:image/svg+xml,PHN2ZyB4bWxucz0iaHR0cDovL3d3dy53My5vcmcvMjAwMC9zdmciIHhtbG5zOnY9Imh0dHBzOi8vdmVjdGEuaW8vbmFubyIgd2lkdGg9IjE4LjMxOTk5OTY5NDgyNDIyIiBoZWlnaHQ9IjIwLjAwMDAwMTkwNzM0ODYzMyIgdmlld0JveD0iMCAwIDE4LjMxOTk5OTY5NDgyNDIyIDIwLjAwMDAwMTkwNzM0ODYzMyI+JiN4YTsJPHN0eWxlIHR5cGU9InRleHQvY3NzIj4mI3hhOwkuc3Qwe2ZpbGw6IzY2OWRmNjt9JiN4YTsJLnN0MXtmaWxsOiM0Mjg1ZjQ7fSYjeGE7CS5zdDJ7ZmlsbDojYWVjYmZhO30mI3hhOwk8L3N0eWxlPiYjeGE7CTxkZWZzPiYjeGE7CQk8ZmlsdGVyIGlkPSJBIiB4PSI0LjY0IiB5PSI0LjE5IiB3aWR0aD0iMTQuNzMiIGhlaWdodD0iMTIuNzYiIGZpbHRlclVuaXRzPSJ1c2VyU3BhY2VPblVzZSIgY29sb3ItaW50ZXJwb2xhdGlvbi1maWx0ZXJzPSJzUkdCIj4mI3hhOwkJCTxmZUZsb29kIGZsb29kLWNvbG9yPSIjZmZmIi8+JiN4YTsJCQk8ZmVCbGVuZCBpbj0iU291cmNlR3JhcGhpYyIvPiYjeGE7CQk8L2ZpbHRlcj4mI3hhOwkJPG1hc2sgaWQ9IkIiIHg9IjQuNjQiIHk9IjQuMTkiIHdpZHRoPSIxNC43MyIgaGVpZ2h0PSIxMi43NiIgbWFza1VuaXRzPSJ1c2VyU3BhY2VPblVzZSI+JiN4YTsJCQk8Y2lyY2xlIGN4PSIxMiIgY3k9IjEyLjIzIiByPSIzLjU4IiBmaWx0ZXI9InVybCgjQSkiLz4mI3hhOwkJPC9tYXNrPiYjeGE7CTwvZGVmcz4mI3hhOwk8ZyBjbGFzcz0ic3QwIj4mI3hhOwkJPGNpcmNsZSBjeD0iMTYuMTMiIGN5PSI2LjIxIiByPSIxLjcyIi8+JiN4YTsJCTxjaXJjbGUgY3g9IjIuMTkiIGN5PSI2LjIxIiByPSIxLjcyIi8+JiN4YTsJCTxjaXJjbGUgY3g9IjkuMTYiIGN5PSIxOC4yOCIgcj0iMS43MiIvPiYjeGE7CTwvZz4mI3hhOwk8ZyBtYXNrPSJ1cmwoI0IpIiB0cmFuc2Zvcm09InRyYW5zbGF0ZSgtMi44NCAtMikiPiYjeGE7CQk8cGF0aCB0cmFuc2Zvcm09Im1hdHJpeCguNSAtLjg3IC44NyAuNSAtNC41OSAyMC41MykiIGQ9Ik0xNC42OSAxMC4yMmgxLjU5djguMDRoLTEuNTl6IiBjbGFzcz0ic3QxIi8+JiN4YTsJCTxwYXRoIHRyYW5zZm9ybT0icm90YXRlKDMzMCA4LjUyMyAxNC4yNDQpIiBkPSJNNC40OSAxMy40NWg4LjA0djEuNTlINC40OXoiIGNsYXNzPSJzdDEiLz4mI3hhOwkJPHBhdGggZD0iTTExLjIgNC4xOWgxLjU5djguMDRIMTEuMnoiIGNsYXNzPSJzdDEiLz4mI3hhOwk8L2c+JiN4YTsJPGcgY2xhc3M9InN0MiI+JiN4YTsJCTxjaXJjbGUgY3g9IjkuMTYiIGN5PSIxMC4yMyIgcj0iMi43OCIvPiYjeGE7CQk8Y2lyY2xlIGN4PSIyLjE5IiBjeT0iMTQuMjUiIHI9IjIuMTkiLz4mI3hhOwkJPGNpcmNsZSBjeD0iMTYuMTMiIGN5PSIxNC4yNSIgcj0iMi4xOSIvPiYjeGE7CQk8Y2lyY2xlIGN4PSI5LjE2IiBjeT0iMi4xOSIgcj0iMi4xOSIvPiYjeGE7CTwvZz4mI3hhOzwvc3ZnPg==;" vertex="1" parent="NouRcJh4EqfzDPDc44TD-2">
          <mxGeometry x="130" y="120" width="38" height="42" as="geometry" />
        </mxCell>
        <mxCell id="NouRcJh4EqfzDPDc44TD-8" value="BigQuery" style="sketch=0;html=1;verticalAlign=top;labelPosition=center;verticalLabelPosition=bottom;align=center;spacingTop=-6;fontSize=11;fontStyle=1;fontColor=#999999;shape=image;aspect=fixed;imageAspect=0;image=data:image/svg+xml,PHN2ZyB4bWxucz0iaHR0cDovL3d3dy53My5vcmcvMjAwMC9zdmciIHhtbG5zOnY9Imh0dHBzOi8vdmVjdGEuaW8vbmFubyIgd2lkdGg9IjIwLjAwMTA0NTIyNzA1MDc4IiBoZWlnaHQ9IjIwLjAwMTA0NTIyNzA1MDc4IiBmaWxsLXJ1bGU9ImV2ZW5vZGQiIHZpZXdCb3g9IjAgMCAyMC4wMDEwNDUyMjcwNTA3OCAyMC4wMDEwNDUyMjcwNTA3OCI+JiN4YTsJPHN0eWxlIHR5cGU9InRleHQvY3NzIj4mI3hhOwkuc3Qwe2ZpbGw6I2FlY2JmYTt9JiN4YTsJLnN0MXtmaWxsOiM2NjlkZjY7fSYjeGE7CS5zdDJ7ZmlsbDojNDI4NWY0O30mI3hhOwk8L3N0eWxlPiYjeGE7CTxwYXRoIGNsYXNzPSJzdDAiIGQ9Ik00LjczIDguODN2Mi42M2E0LjkxIDQuOTEgMCAwIDAgMS43MSAxLjc0VjguODN6Ii8+JiN4YTsJPHBhdGggY2xhc3M9InN0MSIgZD0iTTcuODkgNi40MXY3LjUzQTcuNjIgNy42MiAwIDAgMCA5IDE0YTggOCAwIDAgMCAxIDBWNi40MXoiLz4mI3hhOwk8cGF0aCBjbGFzcz0ic3QwIiBkPSJNMTEuNjQgOS44NnYzLjI5YTUgNSAwIDAgMCAxLjctMS44MlY5Ljg2eiIvPiYjeGE7CTxwYXRoIGNsYXNzPSJzdDIiIGQ9Ik0xNS43NCAxNC4zMmwtMS40MiAxLjQyYS40Mi40MiAwIDAgMCAwIC42bDMuNTQgMy41NGEuNDIuNDIgMCAwIDAgLjU5IDBsMS40My0xLjQzYS40Mi40MiAwIDAgMCAwLS41OWwtMy41NC0zLjU0YS40Mi40MiAwIDAgMC0uNiAwIi8+JiN4YTsJPHBhdGggY2xhc3M9InN0MSIgZD0iTTkgMGE5IDkgMCAxIDAgMCAxOEE5IDkgMCAxIDAgOSAwbTAgMTUuNjlhNi42OCA2LjY4IDAgMCAxIC4wMDctMTMuMzYgNi42OCA2LjY4IDAgMCAxIDQuNzI3IDExLjQwM0E2LjY4IDYuNjggMCAwIDEgOSAxNS42OSIvPiYjeGE7PC9zdmc+;" vertex="1" parent="NouRcJh4EqfzDPDc44TD-2">
          <mxGeometry x="213" y="120" width="42" height="42" as="geometry" />
        </mxCell>
        <mxCell id="NouRcJh4EqfzDPDc44TD-9" value="Vertex AI" style="sketch=0;html=1;verticalAlign=top;labelPosition=center;verticalLabelPosition=bottom;align=center;spacingTop=-6;fontSize=11;fontStyle=1;fontColor=#999999;shape=image;aspect=fixed;imageAspect=0;image=data:image/svg+xml,PHN2ZyB4bWxucz0iaHR0cDovL3d3dy53My5vcmcvMjAwMC9zdmciIGlkPSJzdmc1IiB2ZXJzaW9uPSIxLjEiIHZpZXdCb3g9IjAgMCAyMzkuNzA4MjUgMjc0Ljg2MzI4IiBoZWlnaHQ9IjI3NC44NjMyOG1tIiB3aWR0aD0iMjM5LjcwODI1bW0iPiYjeGE7ICAmI3hhOyAgPGRlZnMgaWQ9ImRlZnMyIi8+JiN4YTsgIDxnIHRyYW5zZm9ybT0idHJhbnNsYXRlKC02Ni42ODYzNjEsNjAuMjU5NzY2KSIgaWQ9ImxheWVyMSI+JiN4YTsgICAgPGcgc3R5bGU9Im9wYWNpdHk6MC45OSIgaWQ9InBhdGg4NjkiLz4mI3hhOyAgICA8ZyBzdHlsZT0ib3BhY2l0eTowLjk5IiBpZD0icGF0aDg2OS0yIi8+JiN4YTsgICAgPGcgc3R5bGU9Im9wYWNpdHk6MC45OSIgaWQ9InBhdGg4NjktMyIvPiYjeGE7ICAgIDxnIHN0eWxlPSJvcGFjaXR5OjAuOTkiIGlkPSJwYXRoODY5LTEiLz4mI3hhOyAgICA8ZyBzdHlsZT0ib3BhY2l0eTowLjk5IiBpZD0icGF0aDg2OS04Ii8+JiN4YTsgICAgPGcgc3R5bGU9Im9wYWNpdHk6MC45OSIgaWQ9InBhdGg4NzEiPiYjeGE7ICAgICAgPHBhdGggaWQ9InBhdGgzMzU3IiBkPSJtIDc3LjE4Njc3NSwxMTAuODgyNTIgOTQuMjM5Njk1LDY5Ljc0NTc1IiBzdHlsZT0iY29sb3I6IzAwMDAwMDtmaWxsOiMwMDgwMDA7c3Ryb2tlLXdpZHRoOjIxO3N0cm9rZS1saW5lY2FwOnJvdW5kOy1pbmtzY2FwZS1zdHJva2U6bm9uZSIvPiYjeGE7ICAgIDwvZz4mI3hhOyAgICA8ZyBzdHlsZT0ib3BhY2l0eTowLjk5IiBpZD0icGF0aDg3MyIvPiYjeGE7ICAgIDxwYXRoIGQ9Im0gMTUzLjA4MTIsMTA5LjAzNTY4IGMgMCw2LjEyMDQ3IC00Ljk2MTYyLDExLjA4MjA5IC0xMS4wODIwOSwxMS4wODIwOSAtNi4xMjA0NywwIC0xMS4wODIwOCwtNC45NjE2MiAtMTEuMDgyMDgsLTExLjA4MjA5IDAsLTYuMTIwNDYgNC45NjE2MiwtMTEuMDgyMDgyIDExLjA4MjA4LC0xMS4wODIwODcgNi4xMjA0NywtMTBlLTcgMTEuMDgyMDksNC45NjE2MTcgMTEuMDgyMDksMTEuMDgyMDg3IHogbSAwLC05Mi41MTMzODEgYyAwLDYuMTIwNDY5IC00Ljk2MTYyLDExLjA4MjA5IC0xMS4wODIwOSwxMS4wODIwODkgLTYuMTIwNDcsLTVlLTYgLTExLjA4MjA4LC00Ljk2MTYyNCAtMTEuMDgyMDgsLTExLjA4MjA4OSAwLC02LjEyMDQ2NSA0Ljk2MTYxLC0xMS4wODIwODQ2IDExLjA4MjA4LC0xMS4wODIwODk2IDYuMTIwNDcsLTZlLTcgMTEuMDgyMDksNC45NjE2MjA2IDExLjA4MjA5LDExLjA4MjA4OTYgeiBtIDAsLTMyLjkyMTY4MyBjIDAsNi4xMjA0NjkgLTQuOTYxNjIsMTEuMDgyMDkwNSAtMTEuMDgyMDksMTEuMDgyMDg5OSAtNi4xMjA0NywtNWUtNiAtMTEuMDgyMDgsLTQuOTYxNjIzOSAtMTEuMDgyMDgsLTExLjA4MjA4OTkgMCwtNi4xMjA0NjUgNC45NjE2MSwtMTEuMDgyMDg0IDExLjA4MjA4LC0xMS4wODIwODkgNi4xMjA0NywtMTBlLTcgMTEuMDgyMDksNC45NjE2MiAxMS4wODIwOSwxMS4wODIwODkgeiBNIDEwOC43NDE4MSw3Ni43MTgwMSBjIDAsNi4xMjA0NjkgLTQuOTYxNjIsMTEuMDgyMDg5IC0xMS4wODIwODksMTEuMDgyMDg5IC02LjEyMDQ2OSwwIC0xMS4wODIwODksLTQuOTYxNjIgLTExLjA4MjA4OSwtMTEuMDgyMDg5IDAsLTYuMTIwNDY5IDQuOTYxNjIsLTExLjA4MjA4OSAxMS4wODIwODksLTExLjA4MjA4OSA2LjEyMDQ2OSwwIDExLjA4MjA4OSw0Ljk2MTYyIDExLjA4MjA4OSwxMS4wODIwODkgeiBtIDAsLTMyLjY4MDYyNiBjIDAsNi4xMjA0NjkgLTQuOTYxNjIsMTEuMDgyMDg5IC0xMS4wODIwODksMTEuMDgyMDg5IC02LjEyMDQ2OSwwIC0xMS4wODIwODksLTQuOTYxNjIgLTExLjA4MjA4OSwtMTEuMDgyMDg5IDAsLTYuMTIwNDY5IDQuOTYxNjIsLTExLjA4MjA4OSAxMS4wODIwODksLTExLjA4MjA4OSA2LjEyMDQ2OSwwIDExLjA4MjA4OSw0Ljk2MTYyIDExLjA4MjA4OSwxMS4wODIwODkgeiBtIDAsLTMyLjY3ODI0MyBjIDAsNi4xMjA0NjkgLTQuOTYxNjIsMTEuMDgyMDkgLTExLjA4MjA4OSwxMS4wODIwOSAtNi4xMjA0NjksMCAtMTEuMDgyMDksLTQuOTYxNjIxIC0xMS4wODIwODksLTExLjA4MjA5IDAsLTYuMTIwNDY4OCA0Ljk2MTYyLC0xMS4wODIwODkwNyAxMS4wODIwODksLTExLjA4MjA4OTA3IDYuMTIwNDY5LDAgMTEuMDgyMDg5LDQuOTYxNjIwMjcgMTEuMDgyMDg5LDExLjA4MjA4OTA3IHogTSAxNDIsMzcuNzc5Mjk3IGMgLTUuNzk4OTksMCAtMTAuNSw0LjcwMTAxIC0xMC41LDEwLjUgdiAyOC45OTQxNCBjIDAsNS43OTg5OSA0LjcwMTAxLDEwLjUgMTAuNSwxMC41IDUuNzk4OTksMCAxMC41LC00LjcwMTAxIDEwLjUsLTEwLjUgdiAtMjguOTk0MTQgYyAwLC01Ljc5ODk5IC00LjcwMTAxLC0xMC41IC0xMC41LC0xMC41IHogbSAtOC45ZS00LDEwLjUwMDM3NyBWIDc3LjI3MzY5MSBNIDk3LjY2MDE1NiwtNjAuMjU5NzY2IGMgLTUuNzk4OTksMCAtMTAuNSw0LjcwMTAxIC0xMC41LDEwLjUgdiAyOC45OTQxNDEgYyAwLDUuNzk4OTkgNC43MDEwMSwxMC41IDEwLjUsMTAuNSA1Ljc5ODk5NCwyZS02IDEwLjUwMDAwNCwtNC43MDEwMDkgMTAuNTAwMDA0LC0xMC41IHYgLTI4Ljk5NDE0MSBjIDAsLTUuNzk4OTkxIC00LjcwMTAxLC0xMC41MDAwMDIgLTEwLjUwMDAwNCwtMTAuNSB6IG0gLTQuMzVlLTQsMTAuNDk5NzY1IHYgMjguOTk0MDE3IE0gNzUuNjM0NzY2LDEwMC40OTgwNSBjIC0yLjc1NDE5MSwwLjQxMTQ4IC01LjIzMjExOSwxLjkwMDIxIC02Ljg4ODY3Miw0LjEzODY3IC0zLjQ0ODg3NCw0LjY2MTU3IC0yLjQ2NjAyNCwxMS4yMzYzNSAyLjE5NTMxMiwxNC42ODU1NSBsIDk0LjIzODI4NCw2OS43NDYwOSAxMi43ODYwNCwtMTYuNjY2NTkgLTk0LjUzMjEzNiwtNjkuOTU4NDEgYyAtMi4yMzg2OTksLTEuNjU3MTYgLTUuMDQ0MTAxLC0yLjM1NjkzIC03Ljc5ODgyOCwtMS45NDUzMSB6IiBzdHlsZT0iY29sb3I6IzAwMDAwMDtvcGFjaXR5OjAuOTk7ZmlsbDojYjVjYmY5O2ZpbGwtb3BhY2l0eToxO3N0cm9rZS13aWR0aDoyMTtzdHJva2UtbGluZWNhcDpyb3VuZDtzdHJva2UtbGluZWpvaW46cm91bmQ7LWlua3NjYXBlLXN0cm9rZTpub25lIiBpZD0icGF0aDE4NDAtNSIvPiYjeGE7ICAgIDxwYXRoIGQ9Im0gMTk3LjM5Mjc2LDE0MS45NzM2NiBjIDAsNi4xMjA0NyAtNC45NjE2MiwxMS4wODIwOSAtMTEuMDgyMDksMTEuMDgyMDkgLTYuMTIwNDcsMCAtMTEuMDgyMDksLTQuOTYxNjIgLTExLjA4MjA5LC0xMS4wODIwOSAwLC02LjEyMDQ3IDQuOTYxNjIsLTExLjA4MjA5IDExLjA4MjA5LC0xMS4wODIwOSA2LjEyMDQ3LDAgMTEuMDgyMDksNC45NjE2MiAxMS4wODIwOSwxMS4wODIwOSB6IG0gMCwtOTIuNzI1NTg2IGMgMCw2LjEyMDQ2OSAtNC45NjE2MiwxMS4wODIwOSAtMTEuMDgyMDksMTEuMDgyMDg5IC02LjEyMDQ3LDFlLTYgLTExLjA4MjA5LC00Ljk2MTYyIC0xMS4wODIwOSwtMTEuMDgyMDg5IDAsLTYuMTIwNDcgNC45NjE2MiwtMTEuMDgyMDkxIDExLjA4MjA5LC0xMS4wODIwOSA2LjEyMDQ3LC0xZS02IDExLjA4MjA5LDQuOTYxNjIgMTEuMDgyMDksMTEuMDgyMDkgeiBtIDAsLTMyLjg1NDQ1OCBjIDAsNi4xMjA0NjkgLTQuOTYxNjIsMTEuMDgyMDkgLTExLjA4MjA5LDExLjA4MjA4OSAtNi4xMjA0NywxMGUtNyAtMTEuMDgyMDksLTQuOTYxNjIgLTExLjA4MjA5LC0xMS4wODIwODkgMCwtNi4xMjA0NjkgNC45NjE2MiwtMTEuMDgyMDkwMyAxMS4wODIwOSwtMTEuMDgyMDg5NyA2LjEyMDQ3LC02ZS03IDExLjA4MjA5LDQuOTYxNjIwNyAxMS4wODIwOSwxMS4wODIwODk3IHogbSAxMDAuMDI5MTEsODQuMDA2Nzc0IGMgLTIuNzU1MTcsLTAuNDA1MDA0IC01LjU1ODM4LDAuMzAxMDcgLTcuNzkyOTYsMS45NjI4OSBsIC05NC43NDYxLDcwLjQzNzUgMTIuNTI5MywxNi44NTM1MiA5NC43NDYwOSwtNzAuNDM3NSBjIDQuNjU0MTIsLTMuNDU5NzggNS42MjIxNSwtMTAuMDM3NDggMi4xNjIxMSwtMTQuNjkxNDEgLTEuNjYxMzYsLTIuMjM1NTMgLTQuMTQyODcsLTMuNzE5MzcgLTYuODk4NDQsLTQuMTI1IHogTSAxODYuMzEwNTUsNzAuODY3MTg3IGMgLTUuNzk4OTksMCAtMTAuNSw0LjcwMTAxIC0xMC41LDEwLjUgdiAyOC45OTQxNDMgYyAwLDUuNzk4OTkgNC43MDEwMSwxMC41IDEwLjUsMTAuNSA1Ljc5ODk5LDAgMTAuNSwtNC43MDEwMSAxMC41LC0xMC41IFYgODEuMzY3MTg3IGMgMCwtNS43OTg5OSAtNC43MDEwMSwtMTAuNSAtMTAuNSwtMTAuNSB6IG0gMS4yZS00LDEwLjUwMDgyNyB2IDI4Ljk5NDAxNiIgc3R5bGU9ImNvbG9yOiMwMDAwMDA7b3BhY2l0eTowLjk5O2ZpbGw6Izc2OWVmNTtmaWxsLW9wYWNpdHk6MTtzdHJva2Utd2lkdGg6MjE7c3Ryb2tlLWxpbmVjYXA6cm91bmQ7c3Ryb2tlLWxpbmVqb2luOnJvdW5kOy1pbmtzY2FwZS1zdHJva2U6bm9uZSIgaWQ9InBhdGgxODQwLTMiLz4mI3hhOyAgICA8cGF0aCBkPSJtIDE4Ni4zNDU3LDE3MC42ODE2NCBjIC0xMi4wNDU3LDAgLTIxLjk2MDkzLDkuOTE1MjQgLTIxLjk2MDkzLDIxLjk2MDk0IDAsMTIuMDQ1NyA5LjkxNTIzLDIxLjk2MDk0IDIxLjk2MDkzLDIxLjk2MDk0IDEyLjA0NTcsMCAyMS45NjA5NCwtOS45MTUyNCAyMS45NjA5NCwtMjEuOTYwOTQgMCwtMTIuMDQ1NyAtOS45MTUyNCwtMjEuOTYwOTQgLTIxLjk2MDk0LC0yMS45NjA5NCB6IG0gMCwxNCBjIDQuNDc5NTUsMCA3Ljk2MDk0LDMuNDgxMzkgNy45NjA5NCw3Ljk2MDk0IDAsNC40Nzk1NSAtMy40ODEzOSw3Ljk2MDk0IC03Ljk2MDk0LDcuOTYwOTQgLTQuNDc5NTQsMCAtNy45NjA5MywtMy40ODEzOSAtNy45NjA5MywtNy45NjA5NCAwLC00LjQ3OTU1IDMuNDgxMzksLTcuOTYwOTQgNy45NjA5MywtNy45NjA5NCB6IE0gMjg2LjE2MTM3LDc2Ljc5MTAwOCBBIDExLjA4MjA4OSwxMS4wODIwODkgMCAwIDEgMjc1LjA3OTI4LDg3Ljg3MzA5NyAxMS4wODIwODksMTEuMDgyMDg5IDAgMCAxIDI2My45OTcyLDc2Ljc5MTAwOCAxMS4wODIwODksMTEuMDgyMDg5IDAgMCAxIDI3NS4wNzkyOCw2NS43MDg5MTkgMTEuMDgyMDg5LDExLjA4MjA4OSAwIDAgMSAyODYuMTYxMzcsNzYuNzkxMDA4IFogbSAwLC0zMy4xNDU0MzUgYSAxMS4wODIwODksMTEuMDgyMDg5IDAgMCAxIC0xMS4wODIwOSwxMS4wODIwODkgMTEuMDgyMDg5LDExLjA4MjA4OSAwIDAgMSAtMTEuMDgyMDgsLTExLjA4MjA4OSAxMS4wODIwODksMTEuMDgyMDg5IDAgMCAxIDExLjA4MjA4LC0xMS4wODIwOSAxMS4wODIwODksMTEuMDgyMDg5IDAgMCAxIDExLjA4MjA5LDExLjA4MjA5IHogbSAwLC05Mi40NjgyMjQgYSAxMS4wODIwODksMTEuMDgyMDg5IDAgMCAxIC0xMS4wODIwOSwxMS4wODIwOSAxMS4wODIwODksMTEuMDgyMDg5IDAgMCAxIC0xMS4wODIwOCwtMTEuMDgyMDkgMTEuMDgyMDg5LDExLjA4MjA4OSAwIDAgMSAxMS4wODIwOCwtMTEuMDgyMDg5IDExLjA4MjA4OSwxMS4wODIwODkgMCAwIDEgMTEuMDgyMDksMTEuMDgyMDg5IHogbSAtNDQuMjEzNjIsMzIuNTU3NzE2IGEgMTEuMDgyMDg5LDExLjA4MjA4OSAwIDAgMSAtMTEuMDgyMDksMTEuMDgyMDg5OSAxMS4wODIwODksMTEuMDgyMDg5IDAgMCAxIC0xMS4wODIwOSwtMTEuMDgyMDg5OSAxMS4wODIwODksMTEuMDgyMDg5IDAgMCAxIDExLjA4MjA5LC0xMS4wODIwODkgMTEuMDgyMDg5LDExLjA4MjA4OSAwIDAgMSAxMS4wODIwOSwxMS4wODIwODkgeiBtIDAsOTIuNTM1NDQzIGEgMTEuMDgyMDg5LDExLjA4MjA4OSAwIDAgMSAtMTEuMDgyMDksMTEuMDgyMDg5IDExLjA4MjA4OSwxMS4wODIwODkgMCAwIDEgLTExLjA4MjA5LC0xMS4wODIwODkgMTEuMDgyMDg5LDExLjA4MjA4OSAwIDAgMSAxMS4wODIwOSwtMTEuMDgyMDkgMTEuMDgyMDg5LDExLjA4MjA4OSAwIDAgMSAxMS4wODIwOSwxMS4wODIwOSB6IG0gMCwzMi44ODIzMTIgYSAxMS4wODIwODksMTEuMDgyMDg5IDAgMCAxIC0xMS4wODIwOSwxMS4wODIwOSAxMS4wODIwODksMTEuMDgyMDg5IDAgMCAxIC0xMS4wODIwOSwtMTEuMDgyMDkgMTEuMDgyMDg5LDExLjA4MjA4OSAwIDAgMSAxMS4wODIwOSwtMTEuMDgyMDkzIDExLjA4MjA4OSwxMS4wODIwODkgMCAwIDEgMTEuMDgyMDksMTEuMDgyMDkzIHogbSAzMy4xMzIzMywtMTM2LjU4ODM2NyBhIDEwLjUsMTAuNSAwIDAgMCAtMTAuNSwxMC41IHYgMjguOTk0MTQxIGEgMTAuNSwxMC41IDAgMCAwIDEwLjUsMTAuNSAxMC41LDEwLjUgMCAwIDAgMTAuNSwtMTAuNSB2IC0yOC45OTQxNDEgYSAxMC41LDEwLjUgMCAwIDAgLTEwLjUsLTEwLjUgeiBtIC04ZS00LDEwLjUwMDc1OSBWIDEyLjA1OTIyOSBNIDIzMC44NjUyMyw1LjI0MDIzNDQgYSAxMC41LDEwLjUgMCAwIDAgLTEwLjUsMTAuNDk5OTk5NiB2IDI4Ljk5NDE0MSBhIDEwLjUsMTAuNSAwIDAgMCAxMC41LDEwLjUgMTAuNSwxMC41IDAgMCAwIDEwLjUsLTEwLjUgViAxNS43NDAyMzQgYSAxMC41LDEwLjUgMCAwIDAgLTEwLjUsLTEwLjQ5OTk5OTYgeiBtIDQuMmUtNCwxMC40OTk0MzA2IHYgMjguOTk0MDE3IiBzdHlsZT0iY29sb3I6IzAwMDAwMDtvcGFjaXR5OjAuOTk7ZmlsbDojNTk4NmYyO2ZpbGwtb3BhY2l0eToxO3N0cm9rZS1saW5lY2FwOnJvdW5kO3N0cm9rZS1saW5lam9pbjpyb3VuZDstaW5rc2NhcGUtc3Ryb2tlOm5vbmUiIGlkPSJwYXRoMTg0MC04Ii8+JiN4YTsgIDwvZz4mI3hhOzwvc3ZnPg==;" vertex="1" parent="NouRcJh4EqfzDPDc44TD-2">
          <mxGeometry x="300" y="120" width="37" height="42" as="geometry" />
        </mxCell>
        <mxCell id="NouRcJh4EqfzDPDc44TD-10" value="Dataplex" style="sketch=0;html=1;verticalAlign=top;labelPosition=center;verticalLabelPosition=bottom;align=center;spacingTop=-6;fontSize=11;fontStyle=1;fontColor=#999999;shape=image;aspect=fixed;imageAspect=0;image=data:image/svg+xml,PHN2ZyB4bWxucz0iaHR0cDovL3d3dy53My5vcmcvMjAwMC9zdmciIGlkPSJzdmcxMTkyNDEiIHZlcnNpb249IjEuMSIgdmlld0JveD0iMCAwIDI2NS4yMzA0NyAyODcuNzcxNDgiIGhlaWdodD0iMjg3Ljc3MTQ4bW0iIHdpZHRoPSIyNjUuMjMwNDdtbSI+JiN4YTsgICYjeGE7ICA8ZGVmcyBpZD0iZGVmczExOTIzOCIvPiYjeGE7ICA8ZyB0cmFuc2Zvcm09InRyYW5zbGF0ZSgyNS41NDQ5MjIsLTUuNzEyODkwNikiIGlkPSJsYXllcjEiPiYjeGE7ICAgIDxwYXRoIGQ9Im0gMjExLjAwMzkxLDE4OS44NzMwNSBjIC0xNS43NDAzMSwwIC0yOC42ODM2LDEyLjk0MzI5IC0yOC42ODM2LDI4LjY4MzU5IDAsMTUuNzQwMzEgMTIuOTQzMjksMjguNjgxNjQgMjguNjgzNiwyOC42ODE2NCAxNS43NDAzLDAgMjguNjgxNjQsLTEyLjk0MTMzIDI4LjY4MTY0LC0yOC42ODE2NCAwLC0xNS43NDAzIC0xMi45NDEzNCwtMjguNjgzNTkgLTI4LjY4MTY0LC0yOC42ODM1OSB6IE0gMy4wMzMyMDMxLDUxLjQ0OTIxOSBjIC0xNS42ODMyMDUxLDAgLTI4LjU3ODEyNTEsMTIuODk0OTIgLTI4LjU3ODEyNTEsMjguNTc4MTI1IDRlLTYsMTUuNjgzMjAyIDEyLjg5NDkyMywyOC41ODAwNzYgMjguNTc4MTI1MSwyOC41ODAwNzYgMTUuNjgzMjAxOSwwIDI4LjU4MDA3MzksLTEyLjg5Njg3NCAyOC41ODAwNzc5LC0yOC41ODAwNzYgMCwtMTUuNjgzMjA1IC0xMi44OTY4NzMsLTI4LjU3ODEyNSAtMjguNTgwMDc3OSwtMjguNTc4MTI1IHogTSAxMDcuNzcxNDgsNS43MTI4OTA2IDQ1LjU4Mzk4NCw0Mi4zODY3MTkgNTcuMjY3NTc4LDYyLjE5OTIxOSA5Ni40NDMzNTksMzkuMDk1NzAzIFYgMTI4LjI1MzkxIEwgMjQuOTE5OTIyLDgwLjAyNzM0NCAxMi4wNjA1NDcsOTkuMDk3NjU2IDg2LjY3NTc4MSwxNDkuNDA4MiAxMy45OTQxNDEsMTk4LjIwMTE3IFYgMTMyLjU5NTcgSCAtOS4wMDU4NTk0IHYgOTAuOTUzMTMgbCAxMTcuMTA1NDY5NCw2OS45MzU1NCA1OS42Nzc3MywtMzUuOTc0NiAtMTEuODc1LC0xOS42OTcyNyAtMzYuNDU4OTgsMjEuOTc2NTYgdiAtODguMjg3MTEgbCA3MC4wMDk3Niw0Ny4yMDUwOCAxMi44NTc0MywtMTkuMDcwMzEgLTc0LjQzMTY0LC01MC4xODc1IDczLjkxMDE1LC00OS42MTcxODkgdiA2Ni41ODAwNzkgaCAyMyBWIDc0LjkxNDA2MiBaIG0gMTEuNjcxODgsMzMuNjIzMDQ2NCA2OS43NSw0MS4yNDgwNDcgLTY5Ljc1LDQ2LjgyNjE3NiB6IE0gOTYuNDQzMzU5LDE3MC41NTQ2OSB2IDg5LjE3OTY4IEwgMjYuMTQyNTc4LDIxNy43NSBaIiBzdHlsZT0iY29sb3I6IzAwMDAwMDtvcGFjaXR5OjE7ZmlsbDojNTk4NmYyO2ZpbGwtb3BhY2l0eToxO3N0cm9rZS1saW5lam9pbjpyb3VuZDstaW5rc2NhcGUtc3Ryb2tlOm5vbmUiIGlkPSJwYXRoMTE5NDA3LTQiLz4mI3hhOyAgICA8cGF0aCBkPSJtIDMuMDMzMTk3Niw2OC40NDkyMTkgYyA2LjQ5NTczNjcsMCAxMS41ODAwODM0LDUuMDgyMzkzIDExLjU4MDA4MzQsMTEuNTc4MTI1IDAsNi40OTU3MzEgLTUuMDg0MzQ2NywxMS41ODAwNzggLTExLjU4MDA4MzQsMTEuNTgwMDc4IC02LjQ5NTcyNjcsMCAtMTEuNTc4MTIzNCwtNS4wODQzNDcgLTExLjU3ODEyMzQsLTExLjU4MDA3OCAwLC02LjQ5NTczMiA1LjA4MjM5NjcsLTExLjU3ODEyNSAxMS41NzgxMjM0LC0xMS41NzgxMjUgeiBNIDIxMS4wMDM5MSwyMDYuODczMDUgYyA2LjU1MjgzLDAgMTEuNjgxNjQsNS4xMzA3NiAxMS42ODE2NCwxMS42ODM1OSAwLDYuNTUyODMgLTUuMTI4ODEsMTEuNjgxNjQgLTExLjY4MTY0LDExLjY4MTY0IC02LjU1Mjg0LDAgLTExLjY4MzYsLTUuMTI4ODEgLTExLjY4MzYsLTExLjY4MTY0IDAsLTYuNTUyODMgNS4xMzA3NiwtMTEuNjgzNTkgMTEuNjgzNiwtMTEuNjgzNTkgeiBNIDEwNy43NjM2Nyw5OC41NTQ2ODcgYyAtMjcuNzcyNTc4LDNlLTYgLTUwLjUyMzQzMywyMi43NTA4NjMgLTUwLjUyMzQzMyw1MC41MjM0MzMgMCwyNy43NzI1OCAyMi43NTA4NTUsNTAuNTIxNDkgNTAuNTIzNDMzLDUwLjUyMTQ5IDI3Ljc3MjU4LDAgNTAuNTIzNDQsLTIyLjc0ODkxIDUwLjUyMzQ0LC01MC41MjE0OSAwLC0yNy43NzI1NyAtMjIuNzUwODYsLTUwLjUyMzQzNyAtNTAuNTIzNDQsLTUwLjUyMzQzMyB6IiBzdHlsZT0iY29sb3I6IzAwMDAwMDtvcGFjaXR5OjE7ZmlsbDojZmZmZmZmO2ZpbGwtb3BhY2l0eToxO3N0cm9rZS1saW5lam9pbjpyb3VuZDstaW5rc2NhcGUtc3Ryb2tlOm5vbmUiIGlkPSJwYXRoMTM3Mjg5Ii8+JiN4YTsgICAgPHBhdGggaWQ9InBhdGgxMjAyMDMiIGQ9Im0gMTA3Ljc2MzY3LDEyMC41NTQ2OSBjIDE1Ljg4MjkxLC0xMGUtNiAyOC41MjM0NCwxMi42NDA1MyAyOC41MjM0NCwyOC41MjM0MyAwLDE1Ljg4MjkxIC0xMi42NDA1MywyOC41MjE0OSAtMjguNTIzNDQsMjguNTIxNDkgLTE1Ljg4MjkwNCwwIC0yOC41MjM0MzgsLTEyLjYzODU4IC0yOC41MjM0MzgsLTI4LjUyMTQ5IDAsLTE1Ljg4MjkgMTIuNjQwNTM0LC0yOC41MjM0MyAyOC41MjM0MzgsLTI4LjUyMzQzIHoiIHN0eWxlPSJjb2xvcjojMDAwMDAwO29wYWNpdHk6MTtmaWxsOiM1OTg2ZjI7ZmlsbC1vcGFjaXR5OjE7c3Ryb2tlLWxpbmVqb2luOnJvdW5kOy1pbmtzY2FwZS1zdHJva2U6bm9uZSIvPiYjeGE7ICA8L2c+JiN4YTs8L3N2Zz4=;" vertex="1" parent="NouRcJh4EqfzDPDc44TD-2">
          <mxGeometry x="370" y="120" width="39" height="42" as="geometry" />
        </mxCell>
        <mxCell id="NouRcJh4EqfzDPDc44TD-11" value="Dataflow" style="sketch=0;html=1;verticalAlign=top;labelPosition=center;verticalLabelPosition=bottom;align=center;spacingTop=-6;fontSize=11;fontStyle=1;fontColor=#999999;shape=image;aspect=fixed;imageAspect=0;image=data:image/svg+xml,PHN2ZyB4bWxucz0iaHR0cDovL3d3dy53My5vcmcvMjAwMC9zdmciIHhtbG5zOnY9Imh0dHBzOi8vdmVjdGEuaW8vbmFubyIgd2lkdGg9IjE0LjUxOTk5OTUwNDA4OTM1NSIgaGVpZ2h0PSIyMCIgdmlld0JveD0iMCAwIDE0LjUxOTk5OTUwNDA4OTM1NSAyMCI+JiN4YTsJPHN0eWxlIHR5cGU9InRleHQvY3NzIj4mI3hhOwkuc3Qwe2ZpbGwtcnVsZTpldmVub2RkfSYjeGE7CS5zdDF7ZmlsbDojNjY5ZGY2O30mI3hhOwkuc3Qye2ZpbGw6I2FlY2JmYTt9JiN4YTsJLnN0M3tmaWxsOiM0Mjg1ZjQ7fSYjeGE7CTwvc3R5bGU+JiN4YTsJPGcgY2xhc3M9InN0MCI+JiN4YTsJCTxwYXRoIGNsYXNzPSJzdDEiIGQ9Ik03LjM3IDIuMDNsLTEuNzIuOTYgMS41MiAxLjUtLjAyIDEuNzMgMS4wMi4wMS4wMi0xLjczIDQuMjQgMi41Ni0uMDEgMS4wNyAxLjc3LjAzVjYuMTFMOS4wNSAzLjA0bC0uMjctLjk0eiIvPiYjeGE7CQk8cGF0aCBjbGFzcz0ic3QyIiBkPSJNNy4zNiAyLjAzbC0xLjQyLjM1LS4yOS42MUwuMzkgNS45Mi4zNiA3Ljk3IDIuMTQgOGwuMDItMS4wNyA0LjMxLTIuNDUtLjAyIDEuNzMuODYuMDEuMDYtNC4xOXoiLz4mI3hhOwkJPGcgY2xhc3M9InN0MSI+JiN4YTsJCQk8cGF0aCBkPSJNNy4zNiAyLjAzTDMuOTUgMCAyLjIxLjk1bDMuNDQgMi4wNCAxLjcyLS45NnptLjcxIDExLjc2bC0xLjcyLS4wMi0uMDIgMS43Mi44MiAyLjQ4IDEuNDItLjEyLjI5LS44NSA1LjI3LTIuOTMuMDMtMi4wOS0xLjc5LS4wMi0uMDIgMS4xLTQuMyAyLjQ1eiIvPiYjeGE7CQkJPHBhdGggZD0iTTcuMTUgMTcuOTdsLTMuNDYgMS45NGgtLjA1bC0xLjY2LS45OSAzLjQ5LTEuOTYgMS42OCAxLjAxeiIvPiYjeGE7CQk8L2c+JiN4YTsJCTxwYXRoIGNsYXNzPSJzdDMiIGQ9Ik0xMC44OC4wOWgtLjA1TDcuMzcgMi4wM2wxLjY4IDEuMDEgMy40OS0xLjk2ek0xMC42MiAyMGgtLjA1bC0zLjQyLTIuMDNoMCAwIDBsMS43Mi0uOTYgMy40NCAyLjA0eiIvPiYjeGE7CQk8cGF0aCBjbGFzcz0ic3QyIiBkPSJNLjMzIDEzLjg5di0yaDEuNzZsLS4wMSAxLjA0IDQuMjUgMi41Ni4wMi0xLjcyLjg2LjAxLS4wNiA0LjE4LTEuNjgtMXoiLz4mI3hhOwk8L2c+JiN4YTsJPGNpcmNsZSBjbGFzcz0ic3QyIiBjeD0iMTMuMzgiIGN5PSIxMC4wNCIgcj0iMS4xNCIvPiYjeGE7CTxjaXJjbGUgY2xhc3M9InN0MiIgY3g9IjEuMTQiIGN5PSI5Ljg4IiByPSIxLjE0Ii8+JiN4YTsJPGNpcmNsZSBjbGFzcz0ic3QyIiBjeD0iNy4zMiIgY3k9IjcuOTkiIHI9IjEuMTQiLz4mI3hhOwk8Y2lyY2xlIGNsYXNzPSJzdDIiIGN4PSI3LjIzIiBjeT0iMTIiIHI9IjEuMTQiLz4mI3hhOzwvc3ZnPg==;" vertex="1" parent="NouRcJh4EqfzDPDc44TD-2">
          <mxGeometry x="460" y="120" width="31" height="42" as="geometry" />
        </mxCell>
        <mxCell id="NouRcJh4EqfzDPDc44TD-17" value="Kubernetes" style="sketch=0;html=1;verticalAlign=top;labelPosition=center;verticalLabelPosition=bottom;align=center;spacingTop=-6;fontSize=11;fontStyle=1;fontColor=#999999;shape=image;aspect=fixed;imageAspect=0;image=data:image/svg+xml,PHN2ZyB4bWxucz0iaHR0cDovL3d3dy53My5vcmcvMjAwMC9zdmciIHhtbG5zOnY9Imh0dHBzOi8vdmVjdGEuaW8vbmFubyIgd2lkdGg9IjcwMi44NDYzMTM0NzY1NjI1IiBoZWlnaHQ9IjY4MS45NjcxMDIwNTA3ODEyIiB2aWV3Qm94PSIxMC4wMDEwMjYxNTM1NjQ0NTMgMTAuMDAwOTMzNjQ3MTU1NzYyIDcwMi44NDYzMTM0NzY1NjI1IDY4MS45NjcxMDIwNTA3ODEyIj4mI3hhOwk8c3R5bGUgdHlwZT0idGV4dC9jc3MiPiYjeGE7CS5zdDB7ZmlsbDojMzI2Y2U1O30mI3hhOwkuc3Qxe2ZpbGw6I2ZmZjt9JiN4YTsJPC9zdHlsZT4mI3hhOwk8cGF0aCBjbGFzcz0ic3QwIiBkPSJNMzU4Ljk4NyAxMC4wNmMtNi4yMTMuMzEzLTEyLjMwMSAxLjg1NC0xNy45MDYgNC41MzFMOTYuNzM3IDEzMS4zNDJjLTEyLjgxMSA2LjExOC0yMi4xMTYgMTcuNjg5LTI1LjI4MSAzMS40MzhsLTYwLjI4MSAyNjIuMjVjLTIuODEyIDEyLjIwNy0uNTI0IDI1LjAyNCA2LjM0NCAzNS41MzFhNDYuMzUgNDYuMzUgMCAwIDAgMi42NTYgMy42ODhsMTY5LjEyNSAyMTAuMjgxYzguODY4IDExLjAyMiAyMi4zMTMgMTcuNDQgMzYuNTMxIDE3LjQzOGwyNzEuMjE5LS4wNjJjMTQuMjEyLjAxIDI3LjY1Ny02LjM5NiAzNi41MzEtMTcuNDA2bDE2OS4wNjMtMjEwLjMxM2M4Ljg3My0xMS4wMjggMTIuMTk3LTI1LjQ2NCA5LjAzMS0zOS4yMTlsLTYwLjM3NS0yNjIuMjVjLTMuMTY1LTEzLjc0OC0xMi40Ny0yNS4zMTktMjUuMjgxLTMxLjQzN0wzODEuNjQzIDE0LjU5MmMtNy4wNS0zLjM2OC0xNC44NDEtNC45MjYtMjIuNjU2LTQuNTMxeiIvPiYjeGE7CTxwYXRoIGNsYXNzPSJzdDEgc3QyIiBkPSJNMzYxLjQwOCA5OS4zMDhjLTguMDc3LjAwMS0xNC42MjYgNy4yNzYtMTQuNjI1IDE2LjI1IDAgLjEzOC4wMjguMjY5LjAzMS40MDYtLjAxMiAxLjIxOS0uMDcxIDIuNjg4LS4wMzEgMy43NS4xOTMgNS4xNzYgMS4zMjEgOS4xMzcgMiAxMy45MDYgMS4yMyAxMC4yMDcgMi4yNjEgMTguNjY3IDEuNjI1IDI2LjUzMS0uNjE5IDIuOTY1LTIuODAzIDUuNjc3LTQuNzUgNy41NjNsLS4zNDQgNi4xODhjLTguNzc3LjcyNy0xNy42MTIgMi4wNTktMjYuNDM3IDQuMDYzLTM3Ljk3NSA4LjYyMi03MC42NyAyOC4xODMtOTUuNTYyIDU0LjU5NC0xLjYxNS0xLjEwMi00LjQ0MS0zLjEyOS01LjI4MS0zLjc1LTIuNjExLjM1My01LjI1IDEuMTU4LTguNjg3LS44NDQtNi41NDUtNC40MDYtMTIuNTA2LTEwLjQ4Ny0xOS43MTktMTcuODEyLTMuMzA1LTMuNTA0LTUuNjk4LTYuODQxLTkuNjI1LTEwLjIxOS0uODkyLS43NjctMi4yNTMtMS44MDUtMy4yNS0yLjU5NC0zLjA3LTIuNDQ4LTYuNjkxLTMuNzI0LTEwLjE4Ny0zLjg0NC00LjQ5Ni0uMTU0LTguODI0IDEuNjA0LTExLjY1NiA1LjE1Ni01LjAzNSA2LjMxNS0zLjQyMyAxNS45NjggMy41OTQgMjEuNTYzLjA3MS4wNTcuMTQ3LjEwMS4yMTkuMTU2Ljk2NC43ODIgMi4xNDUgMS43ODMgMy4wMzEgMi40MzggNC4xNjcgMy4wNzcgNy45NzMgNC42NTEgMTIuMTI1IDcuMDk0IDguNzQ3IDUuNDAyIDE1Ljk5OCA5Ljg4MSAyMS43NSAxNS4yODEgMi4yNDYgMi4zOTQgMi42MzkgNi42MTMgMi45MzggOC40MzhsNC42ODggNC4xODhjLTI1LjA5MyAzNy43NjQtMzYuNzA3IDg0LjQwOS0yOS44NDQgMTMxLjkzOGwtNi4xMjUgMS43ODFjLTEuNjE0IDIuMDg1LTMuODk1IDUuMzY1LTYuMjgxIDYuMzQ0LTcuNTI1IDIuMzctMTUuOTk0IDMuMjQxLTI2LjIxOSA0LjMxMy00LjguMzk5LTguOTQyLjE2MS0xNC4wMzEgMS4xMjUtMS4xMi4yMTItMi42ODEuNjE5LTMuOTA2LjkwNi0uMDQzLjAwOS0uMDgyLjAyMi0uMTI1LjAzMS0uMDY3LjAxNS0uMTU1LjA0OC0uMjE5LjA2My04LjYyIDIuMDgzLTE0LjE1OCAxMC4wMDYtMTIuMzc1IDE3LjgxM3MxMC4yMDMgMTIuNTU3IDE4Ljg3NSAxMC42ODhjLjA2My0uMDE0LjE1NC0uMDE3LjIxOS0uMDMxLjA5OC0uMDIyLjE4NC0uMDcuMjgxLS4wOTQgMS4yMDktLjI2NSAyLjcyNC0uNTYxIDMuNzgxLS44NDQgNS4wMDMtMS4zNCA4LjYyNy0zLjMwOCAxMy4xMjUtNS4wMzEgOS42NzctMy40NzEgMTcuNjkyLTYuMzcgMjUuNS03LjUgMy4yNjEtLjI1NSA2LjY5NyAyLjAxMiA4LjQwNiAyLjk2OWw2LjM3NS0xLjA5NGMxNC42NyA0NS40ODMgNDUuNDE0IDgyLjI0NSA4NC4zNDQgMTA1LjMxMmwtMi42NTYgNi4zNzVjLjk1NyAyLjQ3NSAyLjAxMyA1LjgyNSAxLjMgOC4yNjktMi44MzkgNy4zNjEtNy43MDEgMTUuMTMxLTEzLjIzOCAyMy43OTMtMi42ODEgNC4wMDItNS40MjUgNy4xMDgtNy44NDQgMTEuNjg4LS41NzkgMS4wOTYtMS4zMTYgMi43NzktMS44NzUgMy45MzgtMy43NTkgOC4wNDItMS4wMDIgMTcuMzA1IDYuMjE5IDIwLjc4MSA3LjI2NiAzLjQ5OCAxNi4yODQtLjE5MSAyMC4xODctOC4yNS4wMDYtLjAxMS4wMjYtLjAyLjAzMS0uMDMxcy0uMDA0LS4wMjMgMC0uMDMxYy41NTYtMS4xNDMgMS4zNDQtMi42NDQgMS44MTMtMy43MTkgMi4wNzItNC43NDcgMi43NjItOC44MTUgNC4yMTktMTMuNDA2IDMuODctOS43MiA1Ljk5Ni0xOS45MTkgMTEuMzIzLTI2LjI3NCAxLjQ1OS0xLjc0IDMuODM3LTIuNDA5IDYuMzAyLTMuMDdsMy4zMTMtNmMzMy45MzggMTMuMDI3IDcxLjkyNyAxNi41MjIgMTA5Ljg3NSA3LjkwNmExODkuNzcgMTg5Ljc3IDAgMCAwIDI1LjA5NC03LjU2MmwzLjEyNSA1LjYyNWMyLjUwNi44MTUgNS4yNCAxLjIzNiA3LjQ2OSA0LjUzMSAzLjk4NSA2LjgwOSA2LjcxMSAxNC44NjQgMTAuMDMxIDI0LjU5NCAxLjQ1NyA0LjU5MSAyLjE3OCA4LjY1OSA0LjI1IDEzLjQwNi40NzIgMS4wODIgMS4yNTYgMi42MDUgMS44MTMgMy43NSAzLjg5NSA4LjA4NSAxMi45NDIgMTEuNzg3IDIwLjIxOSA4LjI4MSA3LjIxOS0zLjQ3OCA5Ljk4LTEyLjc0IDYuMjE5LTIwLjc4MWwtMS45MDYtMy45MzdjLTIuNDE5LTQuNTgtNS4xNjMtNy42NTQtNy44NDQtMTEuNjU2LTUuNTM3LTguNjYyLTEwLjEzLTE1Ljg1OC0xMi45NjktMjMuMjE5LTEuMTg3LTMuNzk3LjItNi4xNTggMS4xMjUtOC42MjUtLjU1NC0uNjM1LTEuNzM5LTQuMjItMi40MzctNS45MDYgNDAuNDU3LTIzLjg4OCA3MC4yOTktNjIuMDIxIDg0LjMxMy0xMDYuMDYyIDEuODkyLjI5NyA1LjE4Mi44NzkgNi4yNSAxLjA5NCAyLjItMS40NTEgNC4yMjItMy4zNDQgOC4xODgtMy4wMzEgNy44MDggMS4xMjkgMTUuODIzIDQuMDMgMjUuNSA3LjUgNC40OTggMS43MjMgOC4xMjIgMy43MjMgMTMuMTI1IDUuMDYzIDEuMDU3LjI4MyAyLjU3Mi41NDcgMy43ODEuODEzLjA5Ny4wMjQuMTgzLjA3MS4yODEuMDk0LjA2NS4wMTUuMTU2LjAxNy4yMTkuMDMxIDguNjcyIDEuODY3IDE3LjA5NC0yLjg3OSAxOC44NzUtMTAuNjg3cy0zLjc1NC0xNS43MzItMTIuMzc1LTE3LjgxMmMtMS4yNTQtLjI4NS0zLjAzMi0uNzY5LTQuMjUtMS01LjA4OS0uOTY0LTkuMjMxLS43MjYtMTQuMDMxLTEuMTI1LTEwLjIyNS0xLjA3MS0xOC42OTMtMS45NDMtMjYuMjE5LTQuMzEyLTMuMDY4LTEuMTktNS4yNTEtNC44NDEtNi4zMTMtNi4zNDRsLTUuOTA2LTEuNzE5YzMuMDYyLTIyLjE1NCAyLjIzNy00NS4yMTEtMy4wNjItNjguMjgxLTUuMzQ4LTIzLjI4NS0xNC44LTQ0LjU4MS0yNy40MDYtNjMuMzQ0bDUuMTg4LTQuNjU2Yy4yMzctMi42MjQuMDMzLTUuMzc2IDIuNzUtOC4yODEgNS43NTEtNS40MDEgMTMuMDAzLTkuODc5IDIxLjc1LTE1LjI4MSA0LjE1Mi0yLjQ0MyA3Ljk5LTQuMDE3IDEyLjE1Ni03LjA5NC45NDItLjY5NiAyLjIyOS0xLjc5OCAzLjIxOS0yLjU5NCA3LjAxNS01LjU5NiA4LjYzMS0xNS4yNDggMy41OTQtMjEuNTYycy0xNC43OTctNi45MDktMjEuODEyLTEuMzEyYy0uOTk5Ljc5MS0yLjM1NCAxLjgyMy0zLjI1IDIuNTk0LTMuOTI3IDMuMzc4LTYuMzUxIDYuNzE0LTkuNjU2IDEwLjIxOS03LjIxMiA3LjMyNi0xMy4xNzQgMTMuNDM4LTE5LjcxOSAxNy44NDQtMi44MzYgMS42NTEtNi45OSAxLjA4LTguODc1Ljk2OWwtNS41NjIgMy45NjljLTMxLjcxOS0zMy4yNjEtNzQuOTA1LTU0LjUyNS0xMjEuNDA2LTU4LjY1NmwtLjM0NC02LjUzMWMtMS45MDQtMS44MjItNC4yMDMtMy4zNzctNC43ODEtNy4zMTItLjYzNi03Ljg2NC40MjYtMTYuMzI1IDEuNjU2LTI2LjUzMS42NzktNC43NjkgMS44MDctOC43MyAyLTEzLjkwNi4wNDQtMS4xNzctLjAyNi0yLjg4NC0uMDMxLTQuMTU2LS4wMDEtOC45NzQtNi41NDgtMTYuMjUxLTE0LjYyNS0xNi4yNXptLTE4LjMxMiAxMTMuNDM4bC00LjM0NCA3Ni43MTktLjMxMi4xNTZjLS4yOTEgNi44NjMtNS45NCAxMi4zNDQtMTIuODc1IDEyLjM0NGExMi44MiAxMi44MiAwIDAgMS03LjU5NC0yLjQ2OWwtLjEyNS4wNjMtNjIuOTA2LTQ0LjU5NGMxOS4zMzQtMTkuMDExIDQ0LjA2My0zMy4wNiA3Mi41NjItMzkuNTMxIDUuMjA2LTEuMTgyIDEwLjQxLTIuMDU5IDE1LjU5NC0yLjY4N3ptMzYuNjU2IDBjMzMuMjczIDQuMDkyIDY0LjA0NSAxOS4xNTkgODcuNjI1IDQyLjI1bC02Mi41IDQ0LjMxMy0uMjE5LS4wOTRhMTIuOTEgMTIuOTEgMCAwIDEtMTcuNjg3LTIuMzc1Yy0xLjc3MS0yLjIyMS0yLjcwMS00LjgzMi0yLjgxMi03LjQ2OWwtLjA2Mi0uMDMxek0yMzIuMTI2IDI4My42Mmw1Ny40MzcgNTEuMzc1LS4wNjIuMzEzYTEyLjg4IDEyLjg4IDAgMCAxIDEuNjI1IDE3Ljc1IDEyLjg5IDEyLjg5IDAgMCAxLTYuNjg3IDQuNDA2bC0uMDYyLjI1LTczLjYyNSAyMS4yNWMtMy43NDctMzQuMjY1IDQuMzI5LTY3LjU3NCAyMS4zNzUtOTUuMzQ0em0yNTguMTU2LjAzMWM4LjUzNCAxMy44MzMgMTQuOTk3IDI5LjI4MiAxOC44NDQgNDYuMDMxIDMuODAxIDE2LjU0OCA0Ljc1NSAzMy4wNjcgMy4xODggNDkuMDMxbC03NC0yMS4zMTItLjA2Mi0uMzEyYy02LjYyNy0xLjgxMS0xMC42OTktOC41NTItOS4xNTYtMTUuMzEyLjYzMi0yLjc3IDIuMTAyLTUuMTEzIDQuMDk0LTYuODQ0bC0uMDMxLS4xNTYgNTcuMTI1LTUxLjEyNXptLTE0MC42NTYgNTUuMzEzaDIzLjUzMWwxNC42MjUgMTguMjgxLTUuMjUgMjIuODEzLTIxLjEyNSAxMC4xNTYtMjEuMTg3LTEwLjE4Ny01LjI1LTIyLjgxMnptNzUuNDM4IDYyLjU2M2ExMi44MyAxMi44MyAwIDAgMSAyLjk2OS4yMTlsLjEyNS0uMTU2IDc2LjE1NiAxMi44NzVjLTExLjE0NiAzMS4zMTMtMzIuNDczIDU4LjQ0LTYwLjk2OSA3Ni41OTRsLTI5LjU2Mi03MS40MDYuMDk0LS4xMjVjLTIuNzE2LTYuMzEuMDAyLTEzLjcxIDYuMjUtMTYuNzE5IDEuNi0uNzcgMy4yNzEtMS4xOTcgNC45MzgtMS4yODF6bS0xMjcuOTA2LjMxM2ExMi45IDEyLjkgMCAwIDEgMTIuMzc1IDEwLjAzMSAxMi43NyAxMi43NyAwIDAgMS0uNzE5IDcuOTM4bC4yMTkuMjgxLTI5LjI1IDcwLjY4OGMtMjcuMzQ3LTE3LjU0OS00OS4xMjktNDMuODI0LTYwLjc4MS03Ni4wNjJsNzUuNS0xMi44MTIuMTI1LjE1NmMuODQ1LS4xNTUgMS43MDEtLjIzIDIuNTMxLS4yMTl6bTYzLjc4MSAzMC45NjljMi4wMjQtLjA3NCA0LjA3OS4zNDEgNi4wMzEgMS4yODEgMi41NiAxLjIzMyA0LjUzNyAzLjE3MyA1Ljc4MSA1LjVoLjI4MWwzNy4yMTkgNjcuMjVjLTQuODMgMS42MTktOS43OTYgMy4wMDMtMTQuODc1IDQuMTU2LTI4LjQ2NSA2LjQ2My01Ni44MzkgNC41MDUtODIuNTMxLTQuMjVsMzcuMTI1LTY3LjEyNWguMDYzYTEyLjkxIDEyLjkxIDAgMCAxIDEwLjkwNi02LjgxMnoiIHN0cm9rZT0ibm9uZSIgc3Ryb2tlLXdpZHRoPSIuMjUiLz4mI3hhOzwvc3ZnPg==;" vertex="1" parent="NouRcJh4EqfzDPDc44TD-2">
          <mxGeometry x="88" y="210" width="42" height="40" as="geometry" />
        </mxCell>
        <mxCell id="NouRcJh4EqfzDPDc44TD-18" value="" style="shape=image;html=1;verticalAlign=top;verticalLabelPosition=bottom;labelBackgroundColor=#ffffff;imageAspect=0;aspect=fixed;image=https://cdn4.iconfinder.com/data/icons/scripting-and-programming-languages/512/660277-Python_logo-128.png" vertex="1" parent="NouRcJh4EqfzDPDc44TD-2">
          <mxGeometry x="185" y="195" width="70" height="70" as="geometry" />
        </mxCell>
        <mxCell id="NouRcJh4EqfzDPDc44TD-4" value="User 1" style="sketch=0;points=[[0,0,0],[0.25,0,0],[0.5,0,0],[0.75,0,0],[1,0,0],[1,0.25,0],[1,0.5,0],[1,0.75,0],[1,1,0],[0.75,1,0],[0.5,1,0],[0.25,1,0],[0,1,0],[0,0.75,0],[0,0.5,0],[0,0.25,0]];rounded=1;absoluteArcSize=1;arcSize=2;html=1;strokeColor=none;gradientColor=none;shadow=0;dashed=0;fontSize=12;fontColor=#9E9E9E;align=left;verticalAlign=top;spacing=10;spacingTop=-4;whiteSpace=wrap;" vertex="1" parent="1">
          <mxGeometry x="170" y="120" width="120" height="70" as="geometry" />
        </mxCell>
        <mxCell id="NouRcJh4EqfzDPDc44TD-5" value="Frontend" style="sketch=0;points=[[0,0,0],[0.25,0,0],[0.5,0,0],[0.75,0,0],[1,0,0],[1,0.25,0],[1,0.5,0],[1,0.75,0],[1,1,0],[0.75,1,0],[0.5,1,0],[0.25,1,0],[0,1,0],[0,0.75,0],[0,0.5,0],[0,0.25,0]];rounded=1;absoluteArcSize=1;arcSize=2;html=1;strokeColor=none;gradientColor=none;shadow=0;dashed=0;fontSize=12;fontColor=#9E9E9E;align=left;verticalAlign=top;spacing=10;spacingTop=-4;whiteSpace=wrap;fillColor=#F3E5F5;" vertex="1" parent="1">
          <mxGeometry x="170" y="200" width="510" height="220" as="geometry" />
        </mxCell>
        <mxCell id="NouRcJh4EqfzDPDc44TD-12" value="" style="shape=image;html=1;verticalAlign=top;verticalLabelPosition=bottom;labelBackgroundColor=#ffffff;imageAspect=0;aspect=fixed;image=https://cdn1.iconfinder.com/data/icons/ionicons-fill-vol-2/512/logo-javascript-128.png" vertex="1" parent="1">
          <mxGeometry x="200" y="276" width="68" height="68" as="geometry" />
        </mxCell>
        <mxCell id="NouRcJh4EqfzDPDc44TD-13" value="" style="dashed=0;outlineConnect=0;html=1;align=center;labelPosition=center;verticalLabelPosition=bottom;verticalAlign=top;shape=mxgraph.webicons.html5;gradientColor=#DFDEDE" vertex="1" parent="1">
          <mxGeometry x="310" y="280" width="70" height="64" as="geometry" />
        </mxCell>
        <mxCell id="NouRcJh4EqfzDPDc44TD-14" value="" style="shape=image;html=1;verticalAlign=top;verticalLabelPosition=bottom;labelBackgroundColor=#ffffff;imageAspect=0;aspect=fixed;image=https://cdn1.iconfinder.com/data/icons/iconoir-vol-1/24/apple-swift-128.png" vertex="1" parent="1">
          <mxGeometry x="425" y="280" width="64" height="64" as="geometry" />
        </mxCell>
        <mxCell id="NouRcJh4EqfzDPDc44TD-15" value="" style="shape=image;html=1;verticalAlign=top;verticalLabelPosition=bottom;labelBackgroundColor=#ffffff;imageAspect=0;aspect=fixed;image=https://cdn1.iconfinder.com/data/icons/unicons-line-vol-3/24/docker-128.png" vertex="1" parent="1">
          <mxGeometry x="530" y="280" width="64" height="64" as="geometry" />
        </mxCell>
        <mxCell id="NouRcJh4EqfzDPDc44TD-19" value="" style="shape=image;verticalLabelPosition=bottom;labelBackgroundColor=#000000;verticalAlign=top;aspect=fixed;imageAspect=0;image=data:image/png,iVBORw0KGgoAAAANSUhEUgAACIUAAATyCAMAAAAarzMhAAABYlBMVEUAAADP39/T2+PU2uTW2eLP1+fX2+fU2+XV2uXW2ubPz9/W2+bV2uXT1+PV2uXW2ujV2uXW2ebP19/W2ObU1OTT2ePV2uX5+fn5+fn6+vr6+vr6+vr7+/ufn6+jqbmjqLijqLmjqLijqbijqbb6+vr6+vqfp7ekqLj8/PzW2uakqLj39/ekqbj6+vr09PShp7eip7f6+vqfp7elrb37+/v5+fmfqrqfpbX4+Pijqbn////39/eiqLj6+vqjqLr5+fn6+vr7+/uiqbmjqLmiqLf7+/ujprmjpraiqLjU2uT09PfZ3uemq7vs7vK/xNGvtMP19vfo6vDP1N+mq7vj5u3e4urx8vWwtcT4+PnS1+Lm6O/Fyteyt8a2vMqprr3Izdq5vszq7PHX3OfL0N28wc6sscDL0N3g5Ozz9Pbc4Onv8PT39/eqr7/W2eXU1+TX19/U2OPi5e38/Pz6+vr////4+PgVTwaTAAAAdnRSTlMAIEBgUCB/7/+/EI/fQM9v768gcDCAn1Cv38+fQBB/v+//r1D/YCCfX4/fIM+/MIBgkEAff6AwMHDvEEDf72+AMI+Pz7CvUJBwML//7//////////////v///////v///////v/////////2Bg32AgkN9Qbx+wjqF8lAAAPp1JREFUeAHs2YWBA1EIQMEfJxvX/js9d1c4mWkCee1/AwAAAAAAAAAAAAAAAAAAAAAAAAAAAAAAAAAAAAAAAAAAAAAAAAAAAAAAAAAAAAAAAAAAAAAAAAAAAAAAAAAAAAAAAAAAAAAAAAAAAAAAAAAAAAAAAAAAAAAAAAAAAAAAAAAAAAAAAAAAAAAAAAAAAAAAAAAAAAAAAAAAAAAAAAAAAAAAAAAAAAAAAAAAAAAAAAAAAAAAAAAAAAAAAAAAAAAAAAAAAAAAAAAAAAAAAAAAAAAAAAAAAAAAAAAAAAAAAAAAAAAAAAAAAAAAAAAAAAAAAAAAAAAAAAAAAAAAAAAAAAAAAAAAAAAAAAAAAAAAAAAAAAAAAAAAAAAAAAAAAAAAAAAAAAAAAAAAAAAAAAAAAAAAAAAAAAAAAAAAAAAAAAAAAAAAAAAAAAAAAAAAAAAAAAAAAAAAAAAAAAAAAAAAAAAAAAAAAAAAAAAAAAAAAAAAAAAAAAAAAAAAAAAAAAAAAAAAAAAAAAAAAAAAAAAAAAAAAAAAAAAAAAAAAAAAAAAAAAAAAAAAAAAAAAAAAAAAAAAAAAAAAAAAAAAAAAAAAAAAAAAAAAAAAAAAAAAAAAAAAAAAAAAAAAAAAAAAAAAAAAAAAAAAAAAAAAAAAAAAAAAAAAAAAAAAAAAAAAAAAAAAAAAAAAAAAAAAAAAAAAAAAAAAAAAAAAAAAKDXHwz7LRUAwGg8iQvTQcsCANDN4tZ80VIAAIyWcc+4JQAAGM0j8tcQAIBpPDJsAADfbRWPrbsGAPC9RpN4wqblAQD0GE0GACjoMZoMAFDQYwqaDACgx2Q3GQCAcTxvvW0AAN9jFC+ZNgCA7zGPF+0aAEB2j9FkAICiHqPJAABFPUaTAQBqeowmAwAU9RhNBgAo6TGaDABQ0GM0GQCgoMdoMgBAQY/RZACAgh6jyQAABT1GkwEACnqMJgMAFPQYTQYAKOgxmgwAUNBjNBkAoKDHaDIAQEGP0WQAgIIeU9JkAAA9pqTJAAB6TE2TAQD0mJImAwDoMSVNBgDQYzSZbABAd9FjNJlsAMAsLmgyuQCAflyoaDIAgB5T0GQAAD3m09b7lgwA0GMuLFs2AECPuXBo2QAAPeaCJpMAAPSYgiYDAOgxn24yAADHuKDJ5AIATtm7D/U2jjMKoOMOKVRzX5kMtPGQDIlAhWEsiol6SVEj3Xu33/8N0ic9WOkDsTOYPecp7rf3zr/PjRKdDADQoxdSH6OTAYB+vfFm05x9a1Ufo5OZ29pPx+facz97OwDAE1ht4t806/qYI3LyeBikjc1z7d+MNwIAdPl5TFIO0cfMb2uY30HOtUm7LYYA0GUSk5RD9DFH4cRgM0jyizAbADTxP0zP62OOwMrxwWaQ5EKYBQBW4397a6KPeTo6mYvb7X/ZDrMAwKUY58wh+hidzM52+7/8MswAANMY58oh+hidzM64/d92wlMBQApJdif6GJ3MHBlECukAwK/i/9Xs6mM66GTeGbf/3+UwAwDsxRmadX3MDDqZjc12hithFgDYj/Gpc4g+RieTHufOMg4zAcA0Pl0O0cfoZDoySHIxzAQAv45dpqv6GJ3Mk2eQ5DcBADpcjR3Ss119jE4muXau7bQZAKDD9dgt5RB9jE4mHUrttBEAoMON2CHlEH2MTqbjQMgRb1MBsE9Nbk70MTqZ7gximwrA/CdD5jtjpo9JTtSdQWxTAZjD/tX4pJp1fczwOpmOI2W2qQDM4VKMuXNI+X2MTmbtVtvB9XYA5jgZcqQ5RB+TnKjwQEiH2+EoAWCfmjSr+pj8nUymDJJpmwqAfWry5kQfM6ROpiODOBYCwAL2qbWeDzk26tmJKo6UZd6mAmCfWkEOOTXqopPpeJzbYScAwPz71ApzyAsvjXq3VUUGyX4sBAD71KTZnehjntCJCjKIbWoGAH5pl/3ZboY+RiezMW4T29QMAOxT580h+phkq5ZDqd3uBAB4CndjXEwO0cckJyo5ENLtXlg0AOxTk2ZVH5Ohk8mQQWxTFwGAq3Ee04k+ptOZyjNI8tsAzA/sU+t7trsyyuj5Wo+U2aYCMJf9mNScQ14c5XT6eCjeznY7p3EAgKc0jfXnkBdGeZ2p9UCIYyHZANinJld3J/qYWZ6vPIPYpmYAYJ+aNOv6mCXtZN4Zt0dhMwD9AfvU7hyij0nOVHikzDY1IwD71O4coo9Jni/+ca5tKgAZTGO9OST1MTqZzgximwpABm/EozM9r4/5385UmUGSK2thAQDwS7u5nu3qY5JXQlGupQximwpATpdiXFgO0cckp18O5Xh7uz1SOwEAMpwM6cgh+pjkWF0HQhwLKQyAfWqyO9HHdHcy+TOIbSoAue3FI9fs6mOydDIZMohjIfkA2Kd2PNvVxyTH6jlSZpuaH4B9ancO0ccU08ms3WoT29RqAdin5s8hqY/RyXQcCLFNrQ2AfWoyXdXH/ItjNWWQ5HcBKAvYpyZvTfQx+TuZjgxim1oBAPvUzhySoY/RyVzcbhfnTgCAudyNsaIckvoYnUzH49yKj4UAYJ+a3JzoY1InU3IGsU0FIIOzcbGa3X19TOpkys0gjoUAkMH1uGjNuj6m505mY9wmtqnlAmA/xopySOpjBt3JrG22izcOcwOAacyfQ+rvY1Ink/9AiG0qAIPZpybNali434/KdixDBil5mwoAV2M/ppOwWMdXRoV7pd8MYpsKgH1qT+dDfjJKBtrJpCNlPbgcigGAfWr+HPLsKBlmJ7Oz3fbmdjgSADCNuXNI/X1M8krvB0JsUwGwT02a3ckg+5jUyfSfQRwLAcA+NWnWa+5jMnQy74zbxDYVAPvUvnNI6mMG2MlsbLZ92wlHBABuxJg/h9Tfx6ROJs/jXMdCALBPTZrVgfUxybEMGaTYbSoA7MUOhZ8xe2FltEReyZBBSt2mAsD+1dit4Ge7r4+SIXUy11IGsU0FYJldinGJc8hzo+VyMhyBt7fbTO4FAMhwMiRDDqmpj0ley3kgxDYVAPvU5OruZDB9TPLqEmaQ5EIAgOXfpybN3lD6mORk5gximwqAfWrSrA+kj0leK/RIWbdxKAMA9qn5c0jqY4bRyazdajs4FgKAfWpPOeS50XI6WeiBENtUADI4G7Obrg6gj0ley5BBHAsBwC/tOp7t1t3HJK/mP1JmmwqAfWp3Dsnfx2TuZC5ut4ltKgBOhmTIIVX0MclWKY9zbVMBsE9Ndid19zHJiaXJIMmVtQAAi3A1lqLZrbqPSVaOF5NBbFMBsE9NmvUS+5gMnczGuC3ITgCAhdiPJWnW8/cx2TuZtc12BsdCALBPzZBDUh9TcSeT4UCIbSoA9qnJ2dVa+5hkq7AM4lgIAPap3c92Xx9V4UTGDGKbCoB9akcOqbSPSZ1MSUfKbFMBsE/tyCGpj6m1k9lJGcQ2FQD71OJyyOujapzoOBBSjN8FAFigN2KZmt39CvuY1MnkyyC2qQD4pV23Zr26PibZ6jhSVog7AQAW6lKMpeeQ1MdU2MlsbLbluhcAIPfJkPw55NSoLivHS32ca5sKgH1q0qz+pY95aVSZrfwZxLEQAPLbi2WbTsKxUXVOFJxBbFMBsE9N/nB/VJ2VB23hxgEAhrxPTR7Wl0MetVn4kR0A9qlyyOO2aLapANinJgeHleWQd9+zTQWAvbgUDt7XyfTncgAA+9QMOUQnczsAQC/uxiiH6GRsUwGwT53p4IOKOhnHQgCgiUvkw/s6mWq2qQBwPf4Lz3Z1MjsBAHqyH7OQQx45FgJAHk6GyCEf2aYCYJ+6dD6u4ozZJ+8NfZsKAFfj8jn4dLT8PrNNBcA+NQ/nQz63TQXAPlUO0cnYpgJgn5oxh+hkLgQAsE99Mh9+oJOxTQXAL+2W/tmuTmYcAMA+NUcO0clcDADQsxsxFznkC9tUAOxTl9rynjH75MtBHwsBgL247A4OR0vqK9tUAOxT8/Bs9+tBb1MB4FKMcsjQO5mLAQCcDMmQQ3QyV9YCANinZjhjppPZDABgn5rj2a5O5nIAAPvUfnKITsaxEADsU+WQr21TAbBPrcU393UyjoUAsCzOxqocHH6rk7FNBcAv7TzbLb6T2QkAYJ/aYw7RydimAuBkiBzylW0qAPapdTn4QCdT/DYVAK7GKn14XyfT5U4AAPvUHOdDdDL3QlYAsB+zkkO+tk0FwD5VDhlWJ7MZAMA+dXEODu/rZGxTAbBP9Wy3pE5mHADAPjVHDtHJXAzZAcAk5iWHfJVnmwoA9qnOmH090G0qALwRB+DD+zqZJG1TAcAv7Tzb/a7t2e1QBAC4FDOTQ77Ps00FACdD5JAf2l6tBQCwT+3Xx6WeMftxmNtUANiLw3HwqU6m3QkAYJ/qfEjyQ5ZjIQBgnyqH/GibCoB9qhxSeyezEQDAPjWfDz8YSifTsU0FAPtUz3bffS/LNhUA7FPlkEdD3KYCwN2YnxzyuO3BhQAA9qklOLw/tE5mI5QFAK7GgTo4HFYnMw6FAYDrsQCe7T52LASA4dmPUQ6pt5Pp2KYCgJMhcsijPMdCAMA+1Rmzx7apANinerabrZPJsE0FAPtUOeSRbSoA9qlySHWdzJUAAMXuU/nmfsWdzGYoEgC8Ef+Mg8Nvq+1kLgcAqvEn9u5C53UjCMDoCssVlRlWVL7MzDdSsIn6Q6DM9P6Sygw37NnY5zzFyPPt2C/tPNvdpZ3MtQQA+lRzSMBOptw2FQAuZ8qYQ9qOhQDQ4D6V7jByJ9OwNhUATue/YNSq107maJoHAPSpzoe0/cgOgIY5kilkDuloUwHwSztzSNBORpsKgD7VGbNWHXYy1xMA6FM9243YydxMAKBPNYcst5PRpgKgTzWHBOxkHAsBQJ9K99P7K3aoTQWgUZ7JpXDGbG9zO5kXEwD4pZ1nu4s7cCwEgCY5m8thDjnUpgLgZAh/n0MCdjLaVAD0qVR4xuxAmwpAk1zIzNHdj9nJaFMB0KfSfbf8nYw2FQB9qjkkeCdz5vkEAPpUc8jSZtpUAPSp/NNoWMVOZvLymo4mANCnera7gqljIQDE0KeaQ2baVAAa43IuiTlkbxJyLAQA9KnOmE21qQA0xpOZpXR78TsZbSoAtXD2QqakZ7t7E20qAE1xJMczh2xkJ/N2AgAnQ8whW9rJaFMB0Kfy2bC0ncyLCQB2zOlMWc92pzHHQgBAn2oOmYW0qQCgTzWH7E1CjoUAgD7VHDLVpgKgT2Wubu+DEnYyLyYA0Kd6tru+vUlImwoA+lRzyFSbCkAz3MilMYfMtKkA6FNZTHcYuZM5lQBgN13IrG/UCtvJXEsAsKMuZYp7tjvTpgLQBGdzccwhe5OQYyEA4GSIOWSqTQVAn8oyur1W1TuZowkA9Kkb5Nnu3iTkWAgA6FPNIZ/EtKkAoE81h3y0dJsKAPpUup/ev76PX57vetppAPBk3jRGn1eyk7mZNg4A/NLOs92PtKkA6FOJmUPm7mRupS0AACdDzCGfrNqmAoA+lV5rizuZF9POA4DTeUvo9tbayYQcCwEAfarzIf2BNhWAujuSKXIOafuRHQD6VGLmkM5abSoA6FMZDVfdyYS0qQCgT/Vst11tmwoA+lRzyJydzJnnEwDUw4lMmXNIf7B+mwoA+lTeb21oJ3M0AUBdPJMp9IxZJ+RYCAD4pZ1nu/2BNhWAWjubKXUOaTsWAoCTIcTMIZ1NtakAoE+lO1xnJ3M0AUCdXMhV4ovWEjuZmDYVAPSpzof8fSdzO1UDAPSp5pD+QJsKgD6ViDnkbzuZ62ltAKBPpdtbbA7phBwLAQB9qme7/YE2FQB9KiFzSNuxEABq7HKm4DmkE9KmAoA+1Rmz33YyLyYAqKEvcxxGrfk7GW0qAHV19kKm4Ge7HW0qAPV1JFPwHNIfaFMBcDKEkDnkp53MqbQVAKBP5b17nTE7vJYAoKZOZ0p+trv3VQIAfSoBc8jXCQDcTyViDvkmAYCPIQTMIU+k7QMAZQijz/+5j/k2BQAAz2Q8230kAUCtvX4hU+Qc8ngCAKfLCJhDvkuVAgA/tePXM2aPPpiqBQCe69LtxZSpAOBrCN3vf2TXjnHj1qEwjHIXEsVWHUEBKgwIQwhcEPffv5H8kiJFECPOzNg6ZxUf/nuvEiEAsMSZF1Ju4SoAIL/NvIp9C1cCAD3OvISSw7UAQPakaggBgKd1SJyfi3QLAHBNvcxPw96u3CAAkPtbnB+Pfa0BAJTIsJZpn3mMGMd1qwEA+Om21N7WscSZz7bHktatLzkAAL+Ta+0tFT3yt+KU1taHfAsfBADk933EweZjF5dj96ja4zMBYCBZU5ni/Cv2OI2pHemRw78DANzOIjlvNvuVN4+SjvIYFqvHswDgqbX2raXx+zdJjGVMq/B4WQCYSYbejtNNmb56lcQ4lfSeHTXrji8GAPKZJVtrKY1HmMT5Ne1HcpzN0Xof6uLB4zsCgJyXWmvvvbWWzjo58uQRy0m8m0op6cyN1nuvteasOAIAkO+Wehj6qf2Q/kj739ZPQ71b8iE8GwAAAAAAAAAAAAAAAAAAAAAAAAAAAAAAAAAAAAAAAAAAAAAAAAAAAAAAAAAAAAAAAAAAAAAAAAAAAAAAAAAAAAAAAAAAAAAAAAAAAAAAAAAAAAAAAAAAAAAAAAAAAAAAAAAAAAAAAAAAAAAAAAAAAAAAAAAAAAAAAAAAAAAAAAAAAAAAAAAAAAAAAAAAAAAAAAAAAAAAAAAAAAAAAAAAAAAAAAAAAAAAAAAAAAAAAAAAAAAAAAAAAAAAAAAAAAAAAAAAAAAAAAAAAAAAAAAAAAAAAAAAAAAAAAAAAAAAAAAAAAAAAAAAAAAAAAAAAAAAAAAAAAAAAAAAAAAAAAAAAAAAAAAAAAAAAAAAAADAf+zdC2rjyBaA4dqFU5Z5n8BAoYAhASEh3AGyGvPsmbv/Oxe4KOl5tMqWM+XM963ANO3m76o6x+Ph8bXr+q47PR7S5wAAKM99vNc/lnRrAAC7Pv6o/+4PBgC4qV2OP5d3CQDgVkoff60r6V8ExrJIANzYr3MsHIfwL1S+PQ6v3cM+5/hR3vd9dxq+H8a0OQBe42ee09cE42F4fcixyrx/OG0aIwB0ETKEf6HyfemPGvuHkxT5PIAIkSF8Md+Ghzmuse+2H2QHcB0jQ/jiynUFssjd95IAvrq3/HO7dJFfY60p3T84vObYUj98S18aQB8/95guUWK1eUx3DcZDN8f28uu3VA9AheRY7yHdMTi8znEreSipDoAKOUeNKd0pGJ/nuK3+MdUAUCE5avTpLsGhj0+Qu5LWAlAh56gzpbsD43OOz9Id0joAKqSPOl0CVzEuZoANqJASKxiTQYNUyTpkBUCFnKPWlECD6BDgeirkLWodE2iQn9s/pb8FoELmqLVPdwJ+neOf9LfzMgAqZIxqcwKzuX56CbiaCjlEvTG1D8bXaECeEsCGVMhvqXmwm6OOaxkAFQIbGN+iGXmXALajQsBBSIXXBLAZFQJehNTIJQGokD8oUS+1DEqO5sxDui8AJnXrwS9ztOg1AaiQH+Wo1ad2wXM0al8SgAr56Bi1hgRmYzwOaQDg1+zaAWUfDZundFu7/HN9agegQsY56uR0tUNeIbUO71JbO0g8V3yBWwCokHSMOqcNKiRWSJXgaY7WPauQ9wAVMkWdokIQIZtkiAoBVEjqo0aXVAgiZJsMUSGACpmiwlxUCCLkGs8qBFAhF74MGZIKQYRslSEqBFAhY461+vTVKwTTMXPe993vTr87dl3X9/s5tvSLCgFUyAX/jczly1YIImTed6fzVMb0Z8q0G459jk08qRBAhVSvLpufUoMVAmOO68z98VzSCuM0vOzjWnNRIYAKWQyxxi61WCHwFleYH4bKvB6nYx9XyaMKAVRIVYbMU2qxQuA5LpaPU7pIOb/McblehQAq5J0p178JaaFC4BwXmk9TusbuihB5ViGACnmn9PF33sbUYoVAmeMS83FK1zv3caFJhQAq5L1zjr+Sdyk1WSGQ4wLzaUzbKC9xkVxUCKBC3iunXPEv9r1WCB6F9I+pQsX3pkavQgAV8lE57+NH/TCm1GaFwCGq7ae0tXOOeoMKAVTIj8rwkOP/cleTICqE9jeFzI/pBsopqs1FhQAq5E+MT9P5vGyRbLVC4DUqVdwu3vx9SK9CABVSr5EKgRJ1+pJu55yj0q79CgFQIbDFfMw8pJsaj1Enj81XCIAKgQ32leWntGjjOOTUZoUAqJBN4Wnqy5hur+yjxlzarhAAFQIbrAoZ0uc4RY3uPioEQIXAByXHavMupSYzpNxFhQCoEPiga+pJyOI8x3pdsxUCoEJggyndXNJneppjvdJ+hQCoEPjoudUIqcuQY/sVAqBC4KNcMYjy2Z5itXlsskIAVAhssCvkqelPFycVAjRPhcAHeZMR3QYmZWYVcgcAFQKLw+cfNdR5ibUmFQK0T4VA/Zhubn+xa69CgOapEFiMrb5MXZQ51plHFQK0ToXA4tzso5DFECsNKgRonQqBRR+r7O/hQ0avQoDGqRBYlA0XkzawNWRUIUDrVAiVXMh06Z91jHUeVQjQNhUCi7cGNrevMM6xSqdCgLapEFjMTa8Kqd5dNqsQoGkqBBaHulch7R+GPKkQoGUqBBZD3T1H+4chgwoBWqZCYNHXHYW0fxjSqRCgWSoE6p+F9Pf0jlaFAA1TIbD4FnE334YpVhlVCNAuFQKLXaxR7mmcZ1IhQNtUCFQsA+vv6cPGoEKAdqkQWPS1y0Lav5LpVAjQKBUC9Zcc01192v+oEKBZKgQWY6yRWvESK2QVAjRNhUDFiEx/ZyvWVAjQJhUC9X9/jvcVTfGbCgGapEKg/nBhuLNnLE8qZKWx/E8CPo8KgcV/2bsbVcdxpI3jdReJLPNdhoFCgYADRkI4BvpqzOfpmft/394Fswvdazu2VJWc53cB07HjE/1HluyRN0hkRsMbXFAh/5N8dZMPzvF/ys65EIL346V6Cj3bruuG8V+6rmtbifShRNq2+3/jcrRfKoercNzLUf865mdUyu7nf3+OVlAhqBCwv9zz9maft0OF/En8mkI28ubC+OxGf3WZf8uF6zSojREFwm/04ffHuhzu+NVG+jTyNfjg+DeaMA1trPgx/nCt5XBVOPOoEIAdr2aJZMaACnlZbCdn5P3J8jVdHW+Rfw1V9MakWw514/F2T/oMsV1PXs7XoS3+DTSZVzXX4YkKqV4hAOHNrp/kN7jQmku3yvO63O0WaYfYrUqb/1PLgKBcIc/BO94pTF+RPmziaeV4RaGXViXarO3DjvTqhIqQ4Zp5u3zt5DMq5Lzfoku3qucNDvxWAiok08dxrOVv2kHO2kXdLr/FuhUSO5/5RWFq6X3Ezjs+pPGVy6s9b89+O2XeqTl//G8nx/s1g3xAhZy33i+wlkTwLbiP3wmCCol95oVihcgQ+Bjnv8i+ZR7guNCJ9Qo5fr0tQndqguQDpz2iQlAhgAo5DBWyjAn6FRKHwGfI5kNkGf40QkS/QtrAr3MnHWzsm6OXmaBCUCGACjkMFSKeF4oV0gY+j/PyLRJk4du3qZA2GPhyW5/5uGuLCkGFGIEKyfSeUCGxz6xaIeufQmHuvpjYN1yG68RGhVSITddHI8UbBBWCCgEbwzG9JVTIz8ysXiGtzwrjsoL2mrkc58VGhVQY/l2n3CALL6gQVIgFqJBI7wcVcgvM6hXSBvvjsvEDXXixXCFx4vM0Qi+5BT5ZjwpBhRiACvmb3g4qpOdX+bcZms10yOy4Bi9mK6R1+qN/nPh8LqFCUCHq8NSyC70ZVIg0rF4hErg01xtqkApcp18hlcZ/J7TTz8xFTKgQVIg2VMhA7wUV8jOzdoXESWFc1tA6rsjdDFbIzSl8s/Wa1wkqpBhUCDwKDEvaUCETs26FLB1UgRP99SA1edGvkDrfdW/lessDKgQVogoV0tAbQYVIwwoVojg2T5GUxInrc8lWhUxcyjXSNtFzWT0qpBBUCIz8YZtkUCHiWKFCVMdmdyEVl8wqekMVEoP+PJc4Lu0aUSFFoEJg5s9anooKuTlWrpDWcXUa0yESWEsjVipEGv3bbX9lpVOOCjkOFQIX3uJObwIVcsusXCETa3CiMBGix91sVIg4/e+1V7vCUCHHoUJAeItM9qFCTooQ9u85QdArrAhRNFioEHH6g/+kGLqokONQIfBJ1wMqRDLrVojmBIGPVI041tbrV0h06oN/9FyNi6gQVAhojcdXegOoEHGsWyE9a3JClfyVWV+vXiGN+uAfG66oiagQVAic7sGfsksGFSKOVSskBtblElXRswleuUImriNoR8jCo0JQIXC6gTcZyTxUSKP7UyuO1Q1UXvzBRniNClFoscnMCNmjQlAhOrBJhnMk41Ahve7YdstsQE+lScNmTIoVctGPS8/V/YUKQYXAySJ/xmQIKmTmk3j9pRKGM0QcG9IrVIjGebhZuTGWBRWCCgGdATkLWYYKEadaIT/ZikkvQhQMWhXScE0uKkfIoomoEFQInOvO2wSyDBUSWLNCerbD60WIgqRTIT3Xdd3/cU1XLioEFQL7b+9eyC5UyKw6ivdsiVeLEAVZNCpEuLbBzFeRUCGoEDhVPP5zpw4VIk5zEO/ZlkktQhQ0UaFCnHptOdbiIioEFQKnCvz292RQIZ4VK6Rna3q1CFEw1a+QmesLZq65ERWCCoFTDcd/25WhQoQVK6Rne3q1CFFwqV0h4rQPs2VFWVAhqBA4Uzy+WV4ZKiQoVshfrEDjUm34FNkF78dxnH8Zx9Ffg+NDcqxcIb32nZDoWFNAhaBCdOCWDOcbGYQKubBehdz4IHe9D3O6idAvUW7pMozXkHlF7Ut14uNHOs63SL8jabgHftW1boUIb9P4cU4i9Mu/vtb7sW91fOW7yL8+xeW/L697aPTHR1QIKgQWQ+25SH1p3cjrctqNSlRI4Be4f1uvkHK3KZr7/OdYuF3GkO282q7nI3IYU6Q1aQj8klS1QvyW4x1+f7wx3cPhOyHC24T7LPR7MQ3XzK8K36hCnmnVwBuk3SJ9GxCzwm+7eTOvc1TA/gppd049zJebEC2ipDSMPrilQmpEiLunSKvSGBRGipUhusChLuJ85f1crFghwivyyvHG+ZEPzdI5Xpf9JdKK29iwWvYZqJCqfxx0DODBZQt3I2NQIZ63cX5Ybgj8afrh2rAvv1YiDEJbyRzU9+seqK08JtpHZsd7jbUqZP1yC5e4JbbC64P/zGvyNdE28nBKiYsKIYDFk3fIiUxBhQhvkDcP/FEK36bIo9A+MjrFvSPrQ8b+0XBFCrxPjtUqRDL/WfaJNpIH7xY2FWEeI+0wNwqTIagQgAO/sQNZggoZeVWYIxXwk/cLiV4xB5UdlQdqa2U0XJEa3mWqViEz/9k90qJIh6T1L8N1BU/2IqBCUCFwpsS79GQFKoSdy8UGwxWSKzTIIgW1pSFSsUEWs+M9pFaFOP6TILSTBN4nrE2F5KHGyT4+hKNCAA5NODdCylAhFcb9FdFV/izJKb1x1tVskIXceQdfYyzJ3l/5D1yqMfx73/BrkzErRt7njgpBhYDiZAi7jvShQlQaZDHV/yyz07gn0/NuS4NUO9wcK4wlBcZ/ufJpmlRvAfLh840KATi2+s4LWYcKCUnhBK1MlR8TR94lqHwLQRS25oyaFeISUY1ZiAIhtIiPqvNsqBCAQ5Mh9qdDUCG5o4LE7RwhdP7dgQ5zXL23FvHKW+WoVyGPWOFO24p8oaPGgoGLCgFYcWf+qOkQVMg9Ukmed3BJ61LNkQ6aVSZCFg/ealCrkMHAewKd1J7fi6gQVAhoPUDV/mYZVIhL+qdn8SPSmebM2/nKI+RIi8oZEpQqJF+I1DOkkeqX9YgKQYWAwttkFG7LoEKKTpFXGDYG1X891VyDmxORWoYklQpxNyL1DGli/boO51YIKgQg8Kd0CCpkoMK87jP/Y6g1WIjaK/QWsamzebTVfGugON0IWQzFbsmgQgBWSOaP6BBUiEv6J2fRiPY6pq7a8pcQVf8yc6xQIaW665Z1I2QxFmt9VAjAioFf5LpIZqBCnFBprvqSkAODhYuVvoGH9g62VL1CnCiUbeELPhSbZUOFAKy486ucF7IBFdIIldYrDMwHMmSsMxXyUP/L9LUrJIuBn58sSs8EzhEVggqBmn9+K65fZAAqpImG7t2NRAYyJMcaX8BD/y8z166QpLL+5fBQvSJVOXxUCMD+4WWFm4SUoUIqRAh53QhZ3It/Dn8kQhQGxlS3QkY61Y3XVbnIrsX+aVQIwIoLHxM6IUWoECdUnOhHyM7RIsfi578xsYPtXrVC7hZuCTvFhycFVAgqBPRmuS2GCCrECdmZCnnYuYU4HDxS/ROfyrdQqz7+x8y7ieLPYEaFoEJAcZbbXoigQrJQea3+7MBCcskBMwZD9Rd4i1ixQsTCNr1R9UnSN1TI+RUC8OAzhOFJtaFCOqogFNgfa3UPa3pk3uJi5Ui7ehUyqG0Br3CVjQXPASoEYEXgczj/FakiVMhIdqZCnJiauwv0qvlq5MQH3uBerUIaKmEw0t0xF9gajQoBKLBhbkWYWqoEFeIsRerFWDQnepnMYf+ArDRAN9UqRBRH/wqX/FggxVAhABUyRO/mDCpEaKH+kUZru8vvdIQMTnM1zo4BOlaqkJHKGI3cgnyWXJ6KCgFYER98LnfthMpChYxUg+ctgrkXD+RIx9wejn9vsDTrk+pUiIsWLnmnPsf2NyqkTIUA3Pl0TdFlIqgQRzWInUUhi1ByIeH6WtXG0hXJQ50K6UwsS+vU4/aCCilUIQAjlxDGlspAhVwMTYV0VFMqOT2zvlZVqJLIG/gqFeI0R/9FjlROLNy2qBCAFQOXka/dk06HCvGGFmF4kzN3NzqFzEHrYAOva6pUSPcNrvlQ+COgQgBW3ByX4vyX0KlQIWLnpoATqivmuutmZHDrB6tUW7lGhTgqyPFWSX86+J9yFYIKARDHBTVn7uFFhXiqwpm6H7MYqw+dy1rV0dpbnv6uUCFdhdZS/+tLRT4DKgSgwO+B/h5eVIhQDa3i4HB8MiTRqdIjVz7YWPbGU2tj+J95o7uBiyoXrRBUCMCQeZ3+Hl5UiKcqvFoQrRh1Rq352lFNjtd15SvE27jok4W9VxEVUrRCAMRxeY1v6RBUSLK+ScPCZIijd/ej6PKX1sjEWzayNf1e4AYYKgRAfctugdfwokKcnVPCYvcyTd/hFql/+5clN7zJPyYu94QKQYWA9nSI/npVVEhnZ6eoJxWx7i4ZJXPRwbk1crU9jFz0z5KfAhUCsMPItTjf0n6oEKEa5PhH0S2kQG/uwutc8QoRG783N52yRYWgQkCB/GDDIYIKCXbOiCcliTeI9N7EQoUE1etskam4XHR+DRUCsMfs2GyIoEIGqqLhdUJassIkvsn7TqUrZKDCLlbS26FCDFUIwMg1uUloK1TIzcz/iHvbKzfv9OaKTvi0ivux9n+O+zuug0KFABwgD64qdBEV8m47ZBKpSd9hr64ruXe0NXInRKxMAD5QIagQ+N4dkr2gQjbwZtZ/Ovsj9OdXyK1shQQjFZLefWM0KgTgDTqEQ4cKMbLaQfQ/yfExo/sGFZLKVshgpEJuVNxYNMpQIQDv0SHup6BC/rebmfMhpChpTxtVEPQrJBmpEEKFoEIAHVKJF1SI/p+313+a5fFdMu4bVEhXtkKijQrJVN6ACkGFgNUOcXY6BBXSUBXO/P2OH+XHUFRIJqUKUejJGRVitUIAZNbsEFSIwgzEU3+AWjOU/+FFhQQjFRJQIagQ+OYuVxsdggoZrQzx/5CuZ/m1laiQOyoEFWKkQgBkdAY6BBXSWRn/OlKWdUupAqdeIQMqBBVip0IA0oOr6iMqROkmQz68QwZPNDmO1SvkYqRCPCrkF1QIgMyBK3IdrUCFaN3tCKTt/unLU5/6FZJQIagQVAiYC5GG63GCClF4HuhwZH2KpXC80Rub9SvkhgpBhdirEAAZGt3bMqgQ/V2wibTJpy9PDboVUuFqQ4WgQgDs35pxCRXyH6y81Z/0ffhrdYX1K4SKQoWgQgAOiPPDcRVTRIUsqILIq8J7bCH553OnQlAhqBBUCEC6N1yBu9ECFVJe+x6TDD8+epNMz6gQVAgqBGCVzNfMxfW0QIVYeK/XhfQ9PnmTzF+MCkGFoEIAzEyJBKEFKkR/kuFG+kat5ZUV9IwKQYWgQgAMTYm4GyrkFyxO3fWdXegdSWBUCCoEFQJga0qkpwUqpChe1ZABlw/dqtt6ZlQIKgQVAmBtSmSiBSqkoOeb7D15fuJW3TgEZlQIKgQVAmBwSqQRVIiNOYaRDBDV4auA2PaBF6gQVAgqBMDYlIgTVIiJVZ/du1RIQ+8hPrspZF6gQlAhqBAAg1MiTlAheH77jt9eR9bJVzddHS9QIagQVAiA3SkRJ6iQ0sK7vCXurX8Npe1GfyA/UCGoEFQIgMKUiLuhQgrLvCq+TYVEskWe3TD5xvECFYIKQYUUBSCnvnEmCyqkqPg2vzH8Po8ti8+vlfhAhaBCUCHlAKQx8EmcoEK0N8AGE3iDpD/14a8ucwmoEFQIKgQUYJWIE1RIQS1/kovaotNhWq8PVAgqBBUCUNPl4fg4F1Eh5Qz8STqd/LB5fKgQVAgqBCCdECIBFVLOyJ9koGri1+CbzFWhQlAhqBAAhRCZUCHFPPiTjFSDdNM18wIVggpBhQDYdrnyIQMqpJTAn+RefgZk/0NPUSGoEFQIgDaZG35dvqFCUCHa45d03vFxqBBUCCoEQMPtYWaFKipk4VAhW8TOZz4OFYIKQYUA6JHZ8YsmVEgZmT/JP1RCOzV8HCoEFYIKAVA3B37NBRVSBH+UQGeLrc9cBCoEFYIKAVCQAr8iR1RI7Qe4o0LKJggqBBWCCgFQID/4BRMqpOqnQIW0U+bCUCGoEFQIgILkeL+ECqn2GhlUSBwCa0CFoEJQIQAVzI73cqgQvEZmRUPniH1mNagQVAgqBMDio8MHVAgqpMaX1l5ZEyoEFYIKAahAgsICVVQIKmRFG1gbKgQVggoBqGDIvMuICjnbjAo52MaoEFQIKuRdAYirORmCCkGFrIgTK0GFoEJQIQAK7vUmQ1AhqJAVPzOrQYWgQlAhAAoGhckQVAgqxNrNmDwEVAgqBBUCUN/N1Z8MQYWgQmxNhAQhVAgqBBUCYH1xSEaFHIcKsTYREhIRKgQVggoBsJ8hCRVyHlTIos2sxY2RCBWCCkGFvANAhgRUyGlQIYuelYRxGS5QIagQVAiA/QyJqJBzoEIW0bMGd58jLVAhqBBUCICaWy71GHdUCCpkRWy4thzul0gLVAgqBBUCoGvmjQIq5EwXVIi42gEyCy1QIagQVAjAWz2+7G9UyHF4j4xChOTGDxehBSoEFYIKAbCjqXFLBhWCClGIEBeW/iBUCCoEFQJg0Y23CaiQEz35ozhja0Lc1Q/zLdICFYIKQYUAGDVWe4o7KmQh37xCfnARrvHjfBFaoEJQIagQAONi5k1S5QpBhYxvY9B9Tkh2Vz/OSWiBCkGFoEIAPmyfzB0VciLeADuz1uRm/c4LKgQVggoBsM3xFgEVcgpUiORTNt4OS34YrpD/Y+9eUBznsQYMn10kssP9GAaEDIYKGBnhCtCrCdee7v3/8w3zTdHD37SdKCfH9vtuoKpCYj2lW1AICkEhVCe+5b+gEGP55SOpd0XN180fKASFoJCjROwM6VGI7QHpH7LLPvSJ0jBl+QqFoBAUQnSUq8s6FGI79vWyx6I+WmnvWdaHQlAICiHy3aRLGlBIva6WTzRXNfpQZZikfigEhaAQIgcVXdBPFFKvYc3zkvMxaZIVoRAUgkL2F7EkE1CI7Y7gka2p/67MWeqHQlAICiHy0kmXlFGI6dN4YCrkX4UxS/1QCApBIUR+yrqkHyjE9ItkWqZCtHSyIhSCQlAI0X4HhwmFmP4ajeyuu/1aDApBISiEyH3fdEEdCjHdEByOPhWSoqwPhaAQFEL7jO2pIwp5Ki5PveiKyigWoRAUgkKItjFTPqMQ29mnXnZWq8sLUQxCISgEhRA56PLypxQK4cKQrMv7lsUmFIJCUAiRv2u1UYiDx/F83L2pg6wIhaAQFEJ0AIX8RCEc1a2wCmXgLxSCQlAI0e7myhMKsX3Fg+wrjwhBISgEhRA56NUKQSEckjnpwr7JC0MhKASFEKEQFPLtcN+qO+iyQkYh60IhKIQIhaCQ+mPyeMjv9I+CQlAICkEhxO5UFPLu5/FP2VHZx6YQFIJCUAgRCkEhUf9cOeDFqUFsCygEhaAQIl8jBCd1LSoHuz111kVNKOSBUAgKIbqHRZ23e3yhRSHW21PHw90WksQ4RSEoBIXQkS6GDOKxURc0oBDr1zwdbnPqJLZlFIJCUAgd6/tCs/9DlHybnUWT/rmSZTf5RPonCkEhKGQfUdRl/RCHJfNv9kchuRzqxpBPXVInxp1QCApBIXSsg4gncVjQBZ1QiDn9hoPNFUYxbkQhKASF7CQquqhxs4KaUIj5oZFyrH1TSaz7hkJQCAqhY10N+XOz3/DxA4WYbwzR6VAHdWexrkEhKASF7CS6bveQzKBLEhRSt3KkJZnBpbmyohAUgkJ2Es3b3Z7a6IIaFPKG1YCSj4T0LMZdUAgKQSEHiwtDtNvo8Z6EQt6xM/Ik+yitgK5dMwpBISjkaHFUt92onwYU8o7lgHQghSSxLqEQFIJCjhaHZIrYZPAoRiEGL3x/HIUMYlxWFIJCUMjR4pCMTtucxJlQiN9zI/5LHv/UOwpBIShkP9Ggyxq2ua1WUMhbfpmSD2P0UYxrUQgKQSHHi+2p3oaVoEtKKKR+6TiTIcHhxu2sKASFoJDjxfZUPW0RTwMKqd98nMmQxqFC7igEhaCQPUVBl5W2+FufUEj9sjqfDPmUWiWHCkkoBIWgkD1FV13YtMF1pIhCXlDyPRkSVdP4uVeFREUhKASFHDE2hmja3lRIY/X6HEsho+/JkFb/KrTf8x4V0jpWCApBIeuv4SbKurRpc3IaUMgrysXxZMgXUStMiVzdaSvqvhSCQlAIUdrcZEgMJm5aoZAf/hVif7z75oGooe3iaxXSimUtCkEh/hWy6qcRzUaTIfZP4mI279IfSyGT5/dL0P+tuV1e+Nn46XMqBIWgEJcK6YTo8Qdb2NhOltbsp538KcTB/Fny8+4o5y663Zq8onbbCkEhKGQUoseXZHTe1HqMnswUMh5MIaMuanQwFfLUlMjJ2Tf7R922QlAIChmE6IklmRI3tB6jxW7mpT2YQnKp8X6xHzFKWjcl8uls4emMQlCId4WsX8Ekyrq4Rt7ehy6ttVNIczCFyOz0/ZKD/qFVR3izrxmfu6IQFOJXIZ+vX9cnlmT0Jm/uooub7H5gOZpCcvH5fvmofNyreNr+EgMKQSGOFRL1wRVMopMu7x/y1mLRpQVL9vw4mEJkdnmuKtae00ueLkZpdfMKQSEo5CRE6/+xdbM1JAZdXGf5yRqPppDo8v0StPK22cHR2cO7ohAU4lkh+eG7JIlmXV6I20CIRsvhtj2aQuSqy2qywz1DserIn7xMA6KQ+qGQFT28HEqUdUUhbwIhreknqxxOIVEX1vr7lVLd/Xaa7ffdohAU4k8h4eGPC9FVV9TkDSBEo+0nazqaQmTwtqM5hhcM0MXLPTrfFIWgEOcKaR5eDyWa1IAhpghpjT9Zg1eFONhN9CEinsbpkleOEQ72p34oCkEh3hVyfXwqkiipOt8b0gddUzT+ZJV8NIXIrOYMsb9IZvZxqfCHohAU4l4h8+MPZ6JJnTPkn7qq1nywnQ+nkFw8MeTjNUKdXDxX/6koBIX4V8jd7FlJTIZoOYll+abriua3qZR8NIXIqH4Y8g9d3M8XUCvZ/3EoBIV4U8jnE89Koqgr+xC7YqPrat/wysx+FeKArh9uEKLTK/7G0dlMiL1CUAgKyc88K4kGXdk5mq3GFF1ZlIqV9cA/iEImXd45O0FIesmET+k9rDWhkPqhkBU1TzygiXLRlYVOLIpJ1za/5ezF2bFCHNA1RB+TBZOsKr/7z7vpRhSCQlDI8My/AkSjrq41IO1H0bWF/J4XZnSsEAd0LZ2HyYIkK0tvPb+ek25FISgEhdyfWqElalTdTYdcgq6ve9O6Q+mPphA56Zpu8oJyq2vqKzxY7RjSB92MQlAICsm6tJMQLRltFxQurzRI0gdqpXJl/aLDURQiZ11TiO8ep9sXzvc02X6pCYW8PBSyouapf9mIBn2kNtoaxH6ku9r/bHuFGG0n+sjv3bkcX/mxCNF8RxQKqREKsb/KsExCtOwLsxbUXvwYRLV751eql+5gCpGpwiKe3Tg9v/YvDL09sFAICvGjkOm5yx6IJn2w1EnV8j3pg7Vv/n+/ja4V4mAGLUWpU169cznII6V3PFkvja4PhVQNhazvyWcl0aiPFj6i1OpzxehisiZy1RWF7lgKyc2bFvHuQdc2vR7nIRpM8jhVCApBIfO6UUOI/rekj5e6LM+Xx6RP1Hv4lp0uHkghEouurv18x4rdII+VjLe+xFYVhaCQLSrkU1cVblF+iSgGfabzkxCJ6wlicjVw0ZWdfwuR/Dm2eVcKkbv5Il4eg64vZCuFPuerVteHQuqHQkz+kU3d529J0916ocPV65Ol8SIPlS+3oE82yGuadX3hPH+/RPlvMX7v5jbovzr5V4jB4arw6ITI5cEVu97syRoe1ng+JVUUgkI2q5CpwrMyx0s3t01R1VGIrSEPVNJ4ybKm2N0afb6QDc6jrq2Ev1qPJXuF2C/kNeOn3YrdbPlkDW18BAC3skRTsXGqEBSCQqTus7IV4taQR2vO8/cFQ0z+7G7nolUKUV7VrDVLe1NIDvpoof2eV8yCJH20ZM2sZowvIIhqW3/kQiEoxOmzMggdsavWq0nt3F0uMcuvxXjpxlvbBK1XiSaXc1WouFaI/X6i5vZnsObLmMrbiBrLg3/YwknBOC6neHSsEBSCQnLRmmWhA5YbfUXhK31JvdTJAPj93hQifdHnKulrbfiXcvze3c7hzUSd9dHSH4gVu9sqXrXiWCEoBIXIqDXrhLhD1T77d6s18MfdKUQmrVNpUmr/LjWhOHl3hCfnBG//nhOMX5OBn9+78QFdhehaISgEhUjQig1CnNcFIfWB3+5PIXJXx802yjKoE98KQSEoZKq/iY5gCAgRabReYYcKkXHPCBGZ1UOtOFcICkEhkrReJQvBEBBSH/g/dqgQmdVpV5tHq0EhulcICkEhsWi9JvEfwZByEoMGezXVUAgMuRo9Wg06GYxcKASFeJoXHYWOWmx0K5V+c2eHBjOFsDfkajQbZtBsMXKhEBTiaeLwp9Bhy1fdRiE6+Nq2lTX7VIicym4R4mDnSzIZuVAICvE0l16EDtysW6iJW9x/mfepEOnDfhEiMjjgtn+FoBAUIpPBJjriO2V8NIhhg9ZqMlEIG4pmqdrVAUL8KwSFoBAZubeMHPxna1AZxbSzVmq0UAgbikaDvUHmu5/8KwSFoBAZuLeMqhSTei70W73d/ufrFcJKXplEdsOQ3mrkQiEoxNXEYSNuIzaHXPNmFxzKjhUiY3GzbXk3DOnMRi4UgkJ8fVSyEDeHsBpT/+X4sWOFSAxOjLoXhpTuZSMXCkEhzhnCvWWUB/VYipseYbv6CuE9Y2PU6zv2hLhUCApBIQYMmYVoCkyE1N5+OdgrxLR70HfW9DtapQzRYORCISjEqdiTEPnbHdLmrd/n1uxcIRKv+r6GvKMj7E0UFIJCNqkQmWttoiOK39RPadoByvKrFMJ0SJj2tPHlmgWFoJCNKkTGaufDiO6BxZj/dgr6bNPuFSJx0DdU5l3N9IwGIxcKQSGeL50axVGEQ8qc93EKZH6JQvhOxBT3dLFw6A1GLhSCQlyLvZX/RBTngEFqrcqkFygEuqZpV8eRh2wwcqEQFOL7AqEgv0Y4BIPUGIVKdYXgkNDt6na2MNmPXCgEhfibDslC9FW8BwxSZXztD6IQM4eEbl/ngIZsP3KhEBTi8Blwkl8iujdqX+ryzrZfjodRiIlDmk7e0GfQF5V6q5ELhaAQg+ZQ8XYloumqppVhEtsM/htu/SjEoHtytB/EP7DCZDRyoRAU4uBZuf7lJYqGEyJpzLI6/w4JnhRiUH91glT/Dgmd/ciFQlCI222FRf6/iOIQ9PWFOe51q0w+gEIM6JrGvK+JntQZjlwoBIV4I/uK35FoGsKLCTLteIlqcq8Q/3RNc97ZRE+a7EcuFIJCzJquoeqXfxL1Y9KXVNIYZTvl+7ms/Q/eoUIM6oemGkGip4meZHAOzJtCUAgKWd/pWqp+zony6dpo3ZphyrK5poXja2jvWY5c/CLboxWHr2EcGwfbW/xHNA1p4ed8zLIkongamlpzIMMpb1hkcyr6+8J5uEcRoWlMRR8rtGMvPotjgiALIsrTfA76+0pa/awkmsbzUxQpzTD2u/h43ec2NUH/roSQ2mG897/wivrTsJIi4TycorguT0PSVZXz2AvRISlyqv+sJEaW+dyU1f5ox1OUHQbm/1Q/jUP6o15LOA/3zSzT5aUgL01774WIqj8rCeKOwzn9gSMhnNt5PMFeoThN93lozyk14e+alNp2Hu+nmDcK8jaF36rq9fAmIqIcp+l0v4/zV/f7/TT1Mcv+I8r9NN3v838a/3rz897/v/bgQAYAAABgkL/1Pb5qCwAAAAAAAAAAAAAAAAAAAAAAAAAAAAAAAAAAAAAAAAAAAAAAAAAAAAAAAAAAAAAAAAAAAAAAAAAAAAAAAAAAAAAAAAAAAAAAAAAAAAAAAAAAAAAAAAAAAAAAAAAAAAAAAAAAAAAAAAAAAAAAAAAAAAAAAAAAAAAAAAAAAAAAAAAAAAAAAAAAAAAAAAAAAAAAAAAAAAAAAAAAAAAAAAAAAAAAAAAAAAAAAAAAAAAAAAAAAAAAAAAAAAAAAAAAAAAAAAAAAAAAAAAAAAAAAAAAAAAAAAAAAAAAAAAAAAAAAAAAAAAAAAAAAAAAAAAAAAAAAAAAAAAAAAAAAAAAAAAAAAAAAAAAAAAAAAAAAAAAAAAAAAAAAAAAAAAAAAAAAAAAAAAAAAAAAAAAAAAAAAAAAAAAAAAAAAAAAAAAAAAAAAAAAAAAAAAAAAAAAAAAAAAAAAAAAAAAAAAAAAAAAAAAAAAAAAAAAAAAAAAAAAAAAAAAAAAAAAAAAAAAAAAAAAAAAAAAAAAAAAAAAAAAAAAAAAAAAAAAAAAAAAAAAAAAAAAAAAAAAAAAAAAAAAAAAAAAAAAAAAAAAAAAAAAAAAAAAAAAAAAAAAAAAAAAAAAAAAAAAAAAAAAAAAAAAAAAAAAAAAAAAAAAAAAAAAAAAAAAAAAAAAAAAAAAAAAAACCm8pdJ4mqLwgAAAABJRU5ErkJggg==;imageBackground=#000000;" vertex="1" parent="1">
          <mxGeometry x="350" y="360" width="79.63" height="46.22" as="geometry" />
        </mxCell>
      </root>
    </mxGraphModel>
  </diagram>
</mxfile>
